<?xml version="1.0" encoding="UTF-8" standalone="no"?>
<!-- Created with Inkscape (http://www.inkscape.org/) -->
<svg id="svg2" xmlns:rdf="http://www.w3.org/1999/02/22-rdf-syntax-ns#" xmlns="http://www.w3.org/2000/svg" height="213.31" width="213.36" version="1.1" xmlns:cc="http://creativecommons.org/ns#" xmlns:dc="http://purl.org/dc/elements/1.1/">
 <metadata id="metadata7">
  <rdf:RDF>
   <cc:Work rdf:about="">
    <dc:format>image/svg+xml</dc:format>
    <dc:type rdf:resource="http://purl.org/dc/dcmitype/StillImage"/>
    <dc:title/>
   </cc:Work>
  </rdf:RDF>
 </metadata>
 <g id="layer1" stroke="#1a1a1a" transform="translate(-159.89408,-408.78257)">
  <path id="path2985" d="m175.71,469.51c0,13.413-10.873,24.286-24.286,24.286s-24.286-10.873-24.286-24.286,10.873-24.286,24.286-24.286,24.286,10.873,24.286,24.286z" transform="matrix(0.640625,0,0,0.640625,78.754918,192.05813)" fill="#1a1a1a"/>
  <path id="path2987" d="m175.71,469.51c0,13.413-10.873,24.286-24.286,24.286s-24.286-10.873-24.286-24.286,10.873-24.286,24.286-24.286,24.286,10.873,24.286,24.286z" transform="matrix(0.640625,0,0,0.640625,170.75558,123.88462)" fill="#1a1a1a"/>
  <path id="path2989" stroke-linejoin="miter" style="marker-start:none;" d="M367.66,430.99,175.13,577.06,329.71,617.22" stroke-linecap="square" stroke-miterlimit="4" stroke-dasharray="none" stroke-width="8" fill="none"/>
 </g>
</svg>
