<?xml version="1.0" encoding="UTF-8" standalone="no"?>
<!-- Created with Inkscape (http://www.inkscape.org/) -->

<svg
   xmlns:dc="http://purl.org/dc/elements/1.1/"
   xmlns:cc="http://creativecommons.org/ns#"
   xmlns:rdf="http://www.w3.org/1999/02/22-rdf-syntax-ns#"
   xmlns:svg="http://www.w3.org/2000/svg"
   xmlns="http://www.w3.org/2000/svg"
   xmlns:sodipodi="http://sodipodi.sourceforge.net/DTD/sodipodi-0.dtd"
   xmlns:inkscape="http://www.inkscape.org/namespaces/inkscape"
   width="272.99188"
   height="301.31552"
   id="svg3899"
   version="1.1"
   inkscape:version="0.48.5 r10040"
   sodipodi:docname="face.svg"
   inkscape:export-filename="/home/chin/Documents/face.png"
   inkscape:export-xdpi="95.879562"
   inkscape:export-ydpi="95.879562">
  <defs
     id="defs3901" />
  <sodipodi:namedview
     id="base"
     pagecolor="#ffffff"
     bordercolor="#666666"
     borderopacity="1.0"
     inkscape:pageopacity="0.0"
     inkscape:pageshadow="2"
     inkscape:zoom="0.98994949"
     inkscape:cx="420.62327"
     inkscape:cy="108.87388"
     inkscape:document-units="px"
     inkscape:current-layer="layer1"
     showgrid="false"
     fit-margin-top="0"
     fit-margin-left="0"
     fit-margin-right="0"
     fit-margin-bottom="0"
     inkscape:window-width="1366"
     inkscape:window-height="705"
     inkscape:window-x="-2"
     inkscape:window-y="-3"
     inkscape:window-maximized="1" />
  <metadata
     id="metadata3904">
    <rdf:RDF>
      <cc:Work
         rdf:about="">
        <dc:format>image/svg+xml</dc:format>
        <dc:type
           rdf:resource="http://purl.org/dc/dcmitype/StillImage" />
        <dc:title></dc:title>
      </cc:Work>
    </rdf:RDF>
  </metadata>
  <g
     inkscape:label="Layer 1"
     inkscape:groupmode="layer"
     id="layer1"
     transform="translate(-238.50405,-314.0468)">
    <path
       inkscape:connector-curvature="0"
       id="path3055"
       d="m 336.61175,615.2235 c -1.1661,-0.37013 -2.2791,-2.34198 -3.0753,-5.44872 -0.6863,-2.67777 -2.1351,-5.82109 -3.2196,-6.98516 -2.2084,-2.37036 -5.3054,-9.1165 -6.3329,-13.79438 -0.7996,-3.64062 -4.9043,-7.86747 -6.6139,-6.81082 -0.7456,0.46075 -0.9949,2.1766 -0.6692,4.60477 0.8238,6.14232 -0.7424,4.82342 -6.6855,-5.62965 -3.657,-6.43221 -3.8735,-7.61248 -3.7111,-20.225 l 0.106,-8.225 2.9422,0.58844 2.9422,0.58843 -0.1922,-11.10998 c -0.1702,-9.83958 -0.3923,-11.11038 -1.9422,-11.11344 -0.9625,-0.002 -1.75,-0.20273 -1.75,-0.44629 0,-0.96047 4.2377,-7.55716 4.8547,-7.55716 0.9872,0 3.1697,5.37519 3.8269,9.42529 0.3444,2.12221 0.1699,3.57471 -0.4295,3.57471 -1.6926,0 0.7675,9.15903 3.3801,12.5844 1.3023,1.70741 2.3678,3.82285 2.3678,4.70097 0,0.87813 0.45,1.87471 1,2.21463 1.5821,0.97776 1.1629,5.22352 -0.5818,5.89301 -0.8699,0.33385 -2.5574,0.62067 -3.75,0.6374 -1.9534,0.0274 -1.9948,0.13137 -0.4182,1.04969 0.9625,0.5606 1.75,1.69848 1.75,2.52861 0,0.83013 0.45,1.23121 1,0.89129 0.55,-0.33992 1,0.32302 1,1.47321 0,1.23406 -0.9222,2.46194 -2.25,2.99563 -1.6849,0.67726 -1.8167,0.92031 -0.525,0.96777 1.3761,0.0506 1.6037,0.67028 1.125,3.06339 l -0.6,3 5,0 c 2.75,0 6.3478,0.26956 7.9952,0.59903 2.8122,0.56244 3.0373,0.37418 3.6858,-3.0827 0.4777,-2.54661 0.2368,-4.37437 -0.7813,-5.92832 -0.8097,-1.23564 -1.5556,-4.01093 -1.6578,-6.16731 -0.3523,-7.4389 -0.3635,-7.41923 4.2581,-7.43755 l 4.25,-0.0168 -3.1446,-2.01463 c -2.2505,-1.44182 -3.3386,-3.07191 -3.8269,-5.73316 -0.3753,-2.04518 -2.0869,-5.92179 -3.8035,-8.61467 -3.0461,-4.77864 -4.1721,-9.14744 -5.3747,-20.85385 -0.5878,-5.72213 -0.5776,-5.75 2.101,-5.75 4.245,0 5.9057,2.37865 5.2091,7.46104 -0.4534,3.30782 -0.2105,4.66743 1.0155,5.68493 0.8863,0.73553 2.4589,3.14109 3.4948,5.34568 1.0358,2.20459 1.6079,3.10835 1.2713,2.00835 -2.3401,-7.64632 -1.5696,-9.70836 4.0775,-10.91335 4.8169,-1.02782 6.6843,1.05484 6.8446,7.63343 l 0.1359,5.58013 -5.0775,2.23476 -5.0776,2.23475 1.5697,4.36514 c 1.708,4.7497 3.067,5.67182 3.1172,2.11514 0.031,-2.19371 0.068,-2.20144 1.5,-0.30887 0.8075,1.06762 1.4682,2.75512 1.4682,3.75 0,0.99488 0.6053,1.80887 1.345,1.80887 3.0076,0 7.4828,8.59974 6.1053,11.73204 -0.4277,0.97238 -0.8164,2.12187 -0.8639,2.55443 -0.1385,1.26116 -2.9039,2.68161 -5.253,2.69822 -1.1917,0.008 -2.3439,0.54681 -2.5604,1.19642 -0.2165,0.6496 -1.9415,1.74037 -3.8333,2.42392 l -3.4397,1.24281 4.25,0.0761 c 2.3375,0.0418 4.25,0.52608 4.25,1.07608 0,2.29375 1.8929,0.77676 2.1836,-1.75 0.3134,-2.72332 0.3881,-2.75 7.7051,-2.75 8.5718,0 9.082,0.43489 11.5253,9.82505 1.7098,6.57106 5.1025,12.67495 7.0451,12.67495 0.7128,0 1.8562,0.675 2.5409,1.5 0.6859,0.82636 2.874,1.5025 4.8725,1.50558 6.6153,0.0102 10.9844,1.818 12.7871,5.29098 0.9146,1.76189 1.8254,2.75344 2.0241,2.20344 0.1987,-0.55 1.641,-4.6 3.2052,-9 1.5641,-4.4 4.0183,-10.7 5.4538,-14 2.8489,-6.54942 3.4315,-11.5 1.3535,-11.5 -0.7171,0 -2.8546,1.60758 -4.75,3.5724 -1.8954,1.96482 -6.1284,5.36886 -9.4068,7.56455 -6.4099,4.29304 -5.5096,4.26642 -12.7119,0.37592 -2.0806,-1.12384 -2.4549,-3.46423 -0.5775,-3.60976 0.6875,-0.0533 2.9116,-0.0208 4.9424,0.0723 5.4214,0.24843 11.2514,-2.80918 20.8076,-10.91285 4.675,-3.96438 9.6884,-7.65213 11.1408,-8.195 1.7806,-0.66553 2.4955,-1.54253 2.1948,-2.69235 -0.5909,-2.25976 6.4077,-11.17527 8.7725,-11.17527 1.0526,0 2.537,1.34673 3.4673,3.14577 1.5053,2.91094 1.5044,3.09882 -0.012,2.51686 -2.2559,-0.86567 -3.0108,1.61459 -1.6658,5.47289 0.7587,2.17653 0.7809,3.54724 0.071,4.40253 -0.7312,0.88108 -0.4317,2.25731 1.0308,4.73601 1.6059,2.72189 1.9148,4.41119 1.3978,7.64433 -0.6315,3.94958 -0.7523,4.07005 -2.4974,2.49073 -1.0604,-0.95962 -2.7086,-1.43083 -3.9078,-1.11723 -1.6882,0.44148 -1.9608,0.18577 -1.4655,-1.37477 0.4231,-1.33288 0.1308,-1.91712 -0.9589,-1.91712 -0.869,0 -1.5674,-0.84016 -1.5674,-1.88569 0,-1.03713 -0.614,-3.06922 -1.3645,-4.51575 -1.5616,-3.01008 -2.1436,-2.5798 -5.4858,4.05544 -2.2404,4.44795 -1.7479,5.346 2.9321,5.346 3.2817,0 2.1428,2.32613 -4.0818,8.3362 -3.3,3.18631 -6,6.2839 -6,6.88353 0,0.59964 0.823,0.3455 1.8288,-0.56474 2.3966,-2.1689 4.1712,-2.1029 4.1712,0.15513 0,0.99557 -3.375,5.19608 -7.5,9.33447 -5.7797,5.79848 -7.5161,8.19307 -7.5703,10.43987 -0.083,3.45737 -1.7427,8.0697 -1.8594,5.16842 -0.074,-1.84924 -6.3034,-9.27239 -8.984,-10.7063 -2.43,-1.29983 -2.3496,3.77492 0.1146,7.23555 1.1095,1.55816 1.7968,3.05354 1.5273,3.32306 -0.6795,0.67947 -3.1981,-1.97305 -7.8409,-8.25785 -2.1727,-2.94104 -4.6542,-5.34734 -5.5145,-5.34734 -1.8724,0 -7.0201,-2.74122 -10.0717,-5.36325 -1.4074,-1.2093 -3.1226,-1.71285 -4.765,-1.39889 -2.1017,0.40176 -2.6806,0.0345 -3.1986,-2.02925 -0.6309,-2.51388 -0.2623,-3.01159 4.3259,-5.84133 2.6904,-1.65926 1.3408,-2.40006 -6.6162,-3.63169 -6.6597,-1.03084 -7.259,-0.96819 -9.1877,0.9605 -1.8987,1.89866 -1.9419,2.25235 -0.542,4.43358 1.8185,2.83326 3.1051,12.83959 1.8846,14.65576 -0.4752,0.70699 -2.4484,1.54256 -4.385,1.85683 -4.3536,0.70649 -4.8481,-0.2742 -5.3662,-10.64226 -0.2788,-5.57979 -0.7516,-7.57953 -1.8468,-7.81061 -1.4677,-0.30969 -1.4969,3.46504 -0.1135,14.65129 0.2272,1.83737 -0.09,4.14641 -0.7051,5.1312 -1.9603,5.98524 3.5506,11.70071 -0.5842,10.59208 z m 10.1436,-62.1071 c -0.3257,-0.84872 -0.8066,-1.32866 -1.0687,-1.06653 -0.2622,0.26213 -0.18,0.95654 0.1825,1.54313 0.9861,1.59546 1.5624,1.28551 0.8862,-0.4766 z m 82.887,50.54313 c 0.687,-1.1 1.5487,-2 1.9149,-2 0.3662,0 0.4304,0.9 0.1428,2 -0.2877,1.1 -1.1494,2 -1.9149,2 -1.1415,0 -1.1672,-0.35971 -0.1428,-2 z m -151.2118,-9.56482 -5.2461,-7.5887 2.3629,-1.67324 c 1.2996,-0.92028 2.8129,-1.67324 3.3629,-1.67324 1.1671,0 7.4067,12.23082 7.4623,14.62756 0.021,0.89515 -0.5773,2.13802 -1.3291,2.76193 -1.093,0.90713 -2.4179,-0.38593 -6.6129,-6.45431 z m 153.735,4.06482 c -0.2629,-1.375 -0.1216,-2.5 0.3139,-2.5 0.4354,0 0.9355,-0.97725 1.1113,-2.17167 0.4265,-2.89843 2.8195,-3.63005 2.8195,-0.862 0,1.95915 -2.5777,8.03367 -3.4091,8.03367 -0.1967,0 -0.5728,-1.125 -0.8356,-2.5 z m 7.0836,-5.63721 c -0.336,-6.08571 -0.3111,-6.15044 2.9702,-7.71339 2.8901,-1.37657 3.4259,-1.39086 4.2314,-0.11279 0.64,1.01556 0.4,1.85351 -0.7842,2.7382 -1.4555,1.08735 -1.5146,1.58184 -0.4024,3.36286 1.1522,1.84484 0.9819,2.42436 -1.462,4.9752 -1.5213,1.58792 -3.0919,2.88713 -3.4901,2.88713 -0.3983,0 -0.8766,-2.76174 -1.0629,-6.13721 z m -150.0513,0.87862 c -1.9811,-3.10278 -4.7876,-10.42717 -4.7876,-12.49498 0,-1.26881 0.8779,-0.8097 3.3849,1.77024 2.4246,2.49511 3.5324,4.68899 3.9049,7.73314 0.6033,4.93136 -0.4554,6.19712 -2.5022,2.9916 z m 194.4624,-4.86019 c -2.0327,-0.58693 -3.2557,-1.58314 -3.2653,-2.65981 -0.012,-1.32818 -0.209,-1.41588 -0.8631,-0.38392 -0.4662,0.73562 -1.919,1.18562 -3.2282,1 -1.7507,-0.2482 -2.52,-1.13116 -2.9077,-3.33749 -0.5072,-2.88683 -0.7338,-3.00416 -6.0064,-3.11024 -8.3069,-0.16714 -8.9793,-0.28993 -8.9792,-1.63976 0,-0.6875 1.5974,-2.52457 3.5498,-4.08237 3.4508,-2.75343 3.6224,-2.78481 6.1547,-1.12556 2.4985,1.63707 2.5739,1.63022 1.846,-0.16763 -2.3695,-5.85279 -2.356,-6.87444 0.091,-6.87444 1.2972,0 2.4271,0.45 2.5108,1 0.084,0.55 0.2569,1.45 0.3847,2 0.1278,0.55 0.2842,1.72614 0.3477,2.61364 0.086,1.19668 1.1489,1.61363 4.1153,1.61363 3.988,0 4,-0.0118 4,-3.92938 0,-4.35612 -1.1272,-7.06025 -4.501,-10.79789 -1.5716,-1.74102 -2.4519,-4.32155 -2.8998,-8.5 -0.3537,-3.3 -1.3082,-8.20902 -2.1212,-10.90893 -0.8129,-2.69991 -1.478,-6.11767 -1.478,-7.59501 0,-1.47735 -0.9019,-3.50229 -2.0042,-4.49988 -1.1023,-0.99758 -2.47,-3.54353 -3.0392,-5.65766 -0.6408,-2.37963 -2.0677,-4.48941 -3.7458,-5.53853 -1.4909,-0.93207 -2.8542,-1.78679 -3.0295,-1.89937 -0.1753,-0.11259 1.2762,-2.42465 3.2255,-5.13791 2.9918,-4.16438 6.1354,-10.30088 10.6364,-20.76271 0.4732,-1.1 2.2957,-7.175 4.0499,-13.5 3.836,-13.83082 5.169,-29 2.5485,-29 -0.9268,0 -2.5603,2.0022 -3.8723,4.74627 -3.2356,6.76739 -8.2371,9.47572 -16.2693,8.80991 -8.3383,-0.6912 -9.5,-0.89158 -9.5,-1.6388 0,-0.35972 -1.6875,-0.90346 -3.75,-1.20831 -2.0625,-0.30485 -5.325,-0.89 -7.25,-1.30033 -3.3166,-0.70696 -3.4214,-0.64886 -2,1.10889 1.4164,1.75147 1.3134,1.74693 -1.8454,-0.0813 -4.0573,-2.3483 -6.0388,-5.01055 -10.1764,-13.67273 -2.5177,-5.2706 -3.8176,-6.86302 -6.3237,-7.7462 -2.9806,-1.05045 -3.3328,-0.90243 -6.3896,2.68546 -2.3154,2.71774 -3.2393,3.29971 -3.25,2.04719 -0.01,-1.20911 -0.8096,-1.75 -2.5863,-1.75 -2.3219,0 -2.4211,-0.15034 -1.0224,-1.54899 0.8519,-0.85194 2.2864,-1.41444 3.1877,-1.25 2.1003,0.38322 3.3995,-3.02011 2.2902,-5.99985 -0.9471,-2.54433 -9.51,-6.94165 -15.3688,-7.8924 -3.1248,-0.50709 -3.4718,-0.35919 -2.8654,1.22118 0.4079,1.06295 0.2944,1.55362 -0.2777,1.20009 -0.5322,-0.32894 -1.6212,-0.18465 -2.4199,0.32064 -1.1339,0.71729 -0.959,0.92206 0.7977,0.93402 2.4673,0.0168 2.7971,1.12464 1.2149,4.08105 -1.1481,2.14514 -4.3818,2.48665 -8.5478,0.90274 -2.3399,-0.88964 -2.504,-1.19914 -1.1927,-2.25 0.8362,-0.67017 1.7606,-2.23098 2.0544,-3.46848 0.4597,-1.93713 0.1325,-2.25 -2.3533,-2.25 -2.2459,0 -3.0268,0.55544 -3.5148,2.5 -0.5348,2.1309 -1.202,2.5 -4.5191,2.5 -2.1403,-5e-5 -3.8916,-0.35296 -3.8916,-0.7843 0,-0.43134 2.9199,-2.11831 6.4885,-3.74883 l 6.4885,-2.96458 -3.2385,-1.17509 c -3.045,-1.1049 -3.0852,-1.17964 -0.6721,-1.25117 4.9014,-0.1453 14.5029,2.037 26.9336,6.12174 12.8762,4.23107 15.8873,4.57627 27,3.09517 3.575,-0.47647 9.2,-0.57848 12.5,-0.22667 5.0413,0.53743 5.3609,0.67436 2,0.85694 -3.2145,0.17464 -3.6073,0.38607 -2,1.07674 1.1,0.47269 3.2072,0.89106 4.6826,0.92971 2.8514,0.0747 3.8072,1.73415 3.4965,6.07029 -0.1651,2.30558 -0.6068,2.521 -5.6791,2.77001 -3.025,0.1485 -5.05,-0.0765 -4.5,-0.5 0.55,-0.42351 1.1136,-2.47389 1.2523,-4.5564 0.2425,-3.63925 0.1647,-3.74002 -2,-2.59303 -1.2387,0.65636 -2.98,2.02273 -3.8696,3.0364 -1.9397,2.21052 -2.8827,2.34646 -2.8827,0.4156 0,-0.78508 1.1401,-2.3242 2.5335,-3.42028 1.3935,-1.09607 2.1771,-2.21316 1.7414,-2.48243 -1.5865,-0.98048 -9.6913,1.17911 -10.9656,2.92186 -1.5289,2.0909 -1.7427,7.02234 -0.342,7.88803 0.532,0.32878 0.7132,1.86801 0.4027,3.42052 -0.7444,3.72186 1.8681,8.65434 5.6081,10.58837 7.8844,4.07718 29.3418,5.94867 34.9504,3.04834 5.1071,-2.64097 5.7173,-8.47729 1.0698,-10.23153 -3.7909,-1.43092 -3.1063,-4.30546 1.0254,-4.30546 3.0676,0 3.8557,-1.18001 3.1732,-4.75066 -0.5945,-3.10967 -4.8989,-5.19676 -15.1969,-7.3685 -7.5102,-1.58384 -7.8241,-1.73032 -2.6958,-1.25798 3.1923,0.29403 8.9241,1.39917 12.7374,2.45587 9.7196,2.69345 10.3028,2.61281 9.6087,-1.32873 -0.3148,-1.7875 -0.8715,-8.2 -1.2371,-14.25 -0.3657,-6.05 -1.0523,-11.74695 -1.526,-12.6599 -0.476,-0.91764 -2.7274,-1.9752 -5.0346,-2.36501 -5.0317,-0.8501 -8.8401,-4.35559 -8.8864,-8.17964 -0.022,-1.82623 -1.7989,-5.00607 -5.1245,-9.17141 l -5.0906,-6.37595 -4.2763,4.87595 c -2.352,2.68178 -4.996,5.66346 -5.8756,6.62596 -1.9571,2.14166 -6.5992,2.35247 -6.5992,0.29969 0,-0.79767 -0.708,-1.84656 -1.5734,-2.33086 -0.8654,-0.48431 -2.1187,-1.96917 -2.785,-3.29969 -0.951,-1.89888 -2.03,-2.43393 -5.0177,-2.48793 -3.5085,-0.0634 -4.0403,-0.47413 -6.7976,-5.24999 -1.6453,-2.84967 -3.6433,-5.18121 -4.4402,-5.18121 -0.7969,0 -1.7079,-0.675 -2.0244,-1.5 -0.3166,-0.825 -0.9634,-1.5 -1.4373,-1.5 -0.4739,0 -0.6026,0.675 -0.286,1.5 0.8204,2.13791 -1.2406,1.85396 -4.6067,-0.63469 -1.928,-1.42545 -3.4927,-1.88133 -4.7095,-1.37212 -1.0022,0.41941 -4.1717,0.86977 -7.0434,1.00081 -2.8716,0.13103 -6.3433,0.97348 -7.7148,1.87212 -1.3715,0.89863 -3.6344,1.63388 -5.0288,1.63388 -1.5868,0 -2.5352,0.56112 -2.5352,1.5 0,0.825 -0.3375,1.50215 -0.75,1.50478 -1.2627,0.008 -8.516,7.06252 -7.8975,7.68104 0.3189,0.31883 -0.4958,1.42564 -1.8102,2.4596 -2.546,2.00267 -4.1813,6.27952 -7.5646,19.78399 -3.0172,12.04315 -4.2397,14.07058 -8.4843,14.07058 -2.878,0 -3.5632,0.42997 -4.1012,2.57374 -0.3553,1.41556 -0.1219,3.72391 0.5186,5.12967 0.9238,2.02763 0.8781,2.89083 -0.2211,4.17626 -0.7621,0.89118 -1.6914,2.4769 -2.0652,3.52383 -0.668,1.87133 -0.7038,1.87133 -2.1202,0 -0.7924,-1.04693 -1.455,-1.35921 -1.4725,-0.69397 -0.018,0.66524 -1.26,2.34838 -2.7611,3.74031 l -2.7293,2.53078 -1.7288,-3.24031 -1.7287,-3.24031 -0.1669,2.75 c -0.2181,3.59149 -0.315,4.04188 -1.1533,5.35763 -0.3882,0.60919 -0.3355,2.40919 0.117,4 0.4525,1.5908 0.6838,3.79237 0.514,4.89237 -0.1698,1.1 -0.4406,6.83726 -0.6017,12.74947 -0.1717,6.29948 -0.7069,10.75174 -1.293,10.75496 -0.55,0.003 -2.329,1.06889 -3.9534,2.36858 -2.7819,2.22591 -2.8545,2.46194 -1.25,4.06646 1.1824,1.18231 1.7034,3.34896 1.7034,7.08274 0,6.3101 1.6606,14.83657 3.6473,18.72779 1.291,2.52855 1.2508,2.75 -0.4992,2.75 -2.6115,0 -4.192,-2.17573 -3.6447,-5.01762 0.251,-1.30318 -0.1487,-3.06984 -0.8882,-3.9259 -1.4565,-1.68606 -2.781,-7.47662 -2.9863,-13.05648 -0.071,-1.925 -0.4741,-3.61932 -0.8961,-3.76515 -1.3744,-0.47495 -10.9527,11.70745 -12.1276,15.42484 -1.326,4.19528 -3.1731,4.68145 -6.218,1.63661 -1.5379,-1.53797 -2.7042,-2.9088 -2.5917,-3.0463 0.1125,-0.1375 0.2045,-1.41918 0.2045,-2.84819 0,-2.58627 -0.027,-2.59499 -6,-1.90181 -3.3,0.38301 -6,0.43769 -6,0.12153 0,-0.85958 8.1302,-4.62153 9.9879,-4.62153 0.8866,0 2.1699,-0.5625 2.8517,-1.25 0.6818,-0.6875 3.1343,-1.76832 5.45,-2.40182 l 4.2104,-1.15183 -3.91,-0.0982 -3.91,-0.0982 7.3021,-3.85762 c 4.4408,-2.34607 8.6849,-5.52241 10.8312,-8.10631 l 3.5292,-4.24869 0.3399,-14.98026 c 0.187,-8.23914 0.7849,-15.81172 1.3288,-16.82795 1.4848,-2.77432 1.2248,-6.97912 -0.4316,-6.97912 -1.0046,0 -1.6154,-1.82948 -2.0866,-6.25 -0.3665,-3.4375 -0.5559,-6.7 -0.4209,-7.25 0.135,-0.55 -0.1213,-1.8452 -0.5695,-2.87821 -1.1657,-2.68665 1.2122,-11.03367 5.221,-18.327 1.8759,-3.41287 4.6927,-9.93787 6.2596,-14.5 4.1062,-11.95534 6.5528,-17.01515 9.5846,-19.82175 1.4693,-1.36017 3.7319,-4.13454 5.028,-6.16526 2.9649,-4.64568 11.4147,-12.80778 13.2592,-12.80778 1.1714,0 1.1772,0.25629 0.037,1.63006 -1.2214,1.47169 -1.0147,1.55762 2.1276,0.88452 4.5576,-0.97628 5.9803,-2.22071 5.9803,-5.23086 0,-2.36764 0.1995,-2.44568 4.75,-1.85882 2.8468,0.36713 5.3511,0.1744 6.25,-0.48098 1.1378,-0.82944 0.5339,-0.9468 -2.5,-0.48589 l -4,0.60767 2.5,-2.01061 c 1.375,-1.10584 3.025,-2.02062 3.6667,-2.03285 0.6417,-0.0122 1.3167,-0.37891 1.5,-0.81483 0.6888,-1.63769 7.6859,-5.255 8.2862,-4.28371 0.3362,0.54392 1.2692,0.73645 2.0734,0.42784 0.8043,-0.30861 1.2061,-0.9756 0.893,-1.4822 -0.3131,-0.50659 0.8579,-1.41858 2.6021,-2.02663 1.9303,-0.67292 2.7208,-1.38405 2.0199,-1.81722 -0.6757,-0.41762 0.8115,-1.46135 3.5995,-2.52611 4.1451,-1.583 5.6509,-1.67241 11.8052,-0.70094 3.8797,0.61243 8.7412,1.29515 10.8032,1.51717 3.2881,0.35402 3.5341,0.24036 2,-0.92417 -1.5247,-1.15746 -1.0671,-1.33191 3.5666,-1.35964 2.9236,-0.0175 6.2476,0.46691 7.3865,1.07644 1.1389,0.60954 5.4968,1.29052 9.6843,1.51331 14.4669,0.76968 32.2521,7.37399 38.2641,14.20886 6.3591,7.22948 20.9706,41.5583 23.2693,54.66959 1.4435,8.23348 0.4139,35.60392 -1.8807,50 -1.235,7.74765 -5.5077,21.03402 -8.5982,26.73643 -0.5176,0.95504 -0.9411,2.36244 -0.9411,3.12756 0,0.76511 -0.675,1.95132 -1.5,2.63601 -1.8718,1.55351 -1.88,0.58076 -0.046,-5.51178 1.5954,-5.30095 1.3904,-6.16027 -1.8006,-7.54752 -1.1841,-0.51476 -2.8792,-1.45862 -3.7669,-2.09746 -2.457,-1.76808 -4.5589,-0.3919 -5.8601,3.83675 -2.3316,7.57691 -7.1875,20.10838 -9.5522,24.65105 -3.1382,6.02873 -1.1069,9.66896 5.3955,9.66896 4.5429,0 8.0268,-1.67758 9.3036,-4.47992 1.4683,-3.22248 3.8272,-3.27498 3.8272,-0.0852 0,4.80401 -1.8889,7.48532 -7.5069,10.6559 -7.6034,4.29113 -11.019,7.96579 -13.029,14.01745 -2.0557,6.18907 -1.3598,16.54273 1.636,24.34242 2.1489,5.59455 4.253,14.64774 6.4187,27.61657 1.6183,9.69123 3.3414,14.4048 6.7855,18.56204 1.3081,1.5789 2.6326,3.88322 2.9434,5.12072 0.4996,1.98926 0.1993,2.23955 -2.5913,2.15981 -1.736,-0.0496 -4.6189,-0.51247 -6.4064,-1.02859 z m 2.9773,-151.47254 c -0.6393,-3.34445 -1.9078,-3.87404 -3.2541,-1.35855 -1.4874,2.77927 -0.5833,4.92219 1.8124,4.29571 1.4035,-0.36704 1.7846,-1.14346 1.4417,-2.93716 z m -34.2273,-5.40868 c 0,-1.2702 -3.0345,-1.2702 -5,0 -1.1382,0.7356 -0.7162,0.97307 1.75,0.98469 1.7875,0.008 3.25,-0.43469 3.25,-0.98469 z m -91.2669,-67.80785 c -0.8096,-0.93069 -1.2715,-2.36715 -1.0264,-3.19215 0.2846,-0.95798 0.1471,-1.1025 -0.3805,-0.39994 -0.4544,0.60503 -1.4884,1.31327 -2.2978,1.57386 -1.1271,0.36291 -0.7933,1.15201 1.4262,3.37154 3.0631,3.06308 5.079,1.86571 2.2785,-1.35331 z m -0.5331,-7.39215 c -0.9333,-0.93333 -1.4666,-0.93333 -2.4,0 -0.9333,0.93333 -0.6666,1.2 1.2,1.2 1.8667,0 2.1334,-0.26667 1.2,-1.2 z m 10.05,-4.46228 c -0.6875,-0.27741 -1.8125,-0.27741 -2.5,0 -0.6875,0.27741 -0.125,0.50439 1.25,0.50439 1.375,0 1.9375,-0.22698 1.25,-0.50439 z m 8.5696,-3.50939 c -0.4019,-2.73089 -1.868,-3.24459 -4.2628,-1.49351 -2.3389,1.71026 -1.2339,3.66518 2.0718,3.66518 2.0081,0 2.4466,-0.4346 2.191,-2.17167 z m 6.6529,-8.17194 c -2.7055,-1.8429 -8.6667,-3.79607 -9.3846,-3.07482 -1.2556,1.26144 4.2786,4.41843 7.7454,4.41843 3.3356,0 3.461,-0.10271 1.6392,-1.34361 z m 5.0856,-1.56251 c -0.3081,-0.49837 -1.4596,-0.67088 -2.5591,-0.38337 -2.7515,0.71955 -2.504,1.28949 0.5601,1.28949 1.4074,0 2.307,-0.40775 1.999,-0.90612 z m -3.0581,-3.09388 c -0.3399,-0.55 -1.4649,-1 -2.5,-1 -1.035,0 -2.16,0.45 -2.5,1 -0.3615,0.585 0.676,1 2.5,1 1.8241,0 2.8616,-0.415 2.5,-1 z m 28.7036,250.74531 c -0.7632,-0.91959 -0.1246,-2.25502 2.391,-5 1.8878,-2.05992 3.7075,-3.74531 4.0439,-3.74531 1.139,0 -0.6515,6.35697 -2.3053,8.18438 -1.9406,2.14436 -2.7268,2.25115 -4.1296,0.56093 z m -148.8036,-5.14531 c -1.87,-1.87 -3.4,-3.86234 -3.4,-4.42742 0,-1.45511 5.0554,-5.25638 6.1176,-4.59994 0.4853,0.29997 0.8824,-0.15616 0.8824,-1.01362 0,-3.22266 3.5054,-0.83645 6.4049,4.35994 1.6251,2.91259 1.6693,3.32348 0.3009,2.79837 -1.1369,-0.43625 -1.4378,-0.18266 -1.0336,0.87084 0.6683,1.74146 -2.3343,5.41183 -4.4272,5.41183 -0.7947,0 -2.975,-1.53 -4.845,-3.4 z m 12.5891,-7.85 c -2.1571,-3.53781 -2.4776,-5.33001 -1.1051,-6.17827 0.4861,-0.30047 1.356,0.68547 1.9329,2.19098 2.9067,7.58456 2.5152,9.47017 -0.8278,3.98729 z m 172.8653,-6.31078 c -0.2737,-0.51657 -0.5728,-2.17672 -0.6648,-3.68922 -0.1794,-2.95183 1.4865,-3.75769 2.47,-1.19479 0.6707,1.74793 -1.0296,6.34813 -1.8052,4.88401 z m -188.2478,-4.43542 c -3.2368,-2.06949 -4.7208,-4.00994 -3.9816,-5.20605 0.9575,-1.5492 2.1379,-0.75446 4.7563,3.20225 1.4559,2.2 2.5282,3.96711 2.3829,3.9269 -0.1453,-0.0402 -1.5662,-0.9056 -3.1576,-1.9231 z m 135.3934,-12.16085 c -10.0815,-1.41171 -23.4266,-11.24939 -18.1395,-13.37198 1.9135,-0.76817 19.6078,-0.63427 23.7848,0.17999 1.5701,0.30607 7.2434,0.84732 12.6073,1.20277 l 9.7526,0.64627 -2.2526,2.5 c -1.2389,1.375 -4.1664,4.1875 -6.5054,6.25 -4.6943,4.13913 -6.4837,4.38021 -19.2472,2.59295 z m 48.2276,-7.96468 c -1.7752,-3.09195 -3.2276,-6.25432 -3.2276,-7.02749 0,-0.77317 -0.7253,-2.44127 -1.6117,-3.70689 -1.5313,-2.18623 -1.4721,-2.44699 1.1871,-5.22251 4.7253,-4.93218 5.7627,-4.03162 4.9864,4.32862 -0.5303,5.71118 -0.3274,7.93984 0.9558,10.50012 0.896,1.78756 1.4735,4.03756 1.2833,5 -0.2349,1.18906 -1.3801,-0.0518 -3.5733,-3.87185 z m -205.7276,2.12173 c 0.3642,-1.14731 0.1797,-2 -0.4326,-2 -0.587,0 -1.0674,-1.0699 -1.0674,-2.37756 0,-1.30765 -0.675,-2.93775 -1.5,-3.62244 -2.2099,-1.8341 -1.8417,-3.81211 1.2933,-6.94712 1.5363,-1.53629 2.6521,-3.21682 2.4795,-3.7345 -0.1725,-0.51768 1.4264,-2.8261 3.5531,-5.12981 2.9683,-3.21519 4.5998,-4.18857 7.0205,-4.18857 1.7345,0 3.1536,-0.36515 3.1536,-0.81144 0,-0.44629 0.962,-1.84395 2.1377,-3.10592 1.5929,-1.70981 1.8214,-2.4899 0.8967,-3.06139 -1.6828,-1.04002 -0.1013,-3.87728 4.3297,-7.76774 3.2764,-2.8767 3.6598,-2.9706 8.0382,-1.96867 5.6062,1.28288 6.0734,3.57149 1.3477,6.60131 -1.7875,1.14603 -4.9934,3.43249 -7.1242,5.08103 -2.1308,1.64853 -4.2473,2.76674 -4.7033,2.4849 -0.456,-0.28183 -1.2992,1.23318 -1.8737,3.36671 -0.5745,2.13352 -2.1531,5.4096 -3.5081,7.28017 -1.355,1.87057 -3.5709,5.45431 -4.9241,7.96385 -2.5563,4.74044 -5.6166,8.05921 -5.6166,6.09102 0,-0.60008 -0.675,-0.83204 -1.5,-0.51546 -1.9159,0.7352 -1.9517,2.36163 -0.052,2.36163 1.1746,0 1.2506,0.5664 0.4022,3 -1.1458,3.28675 -3.3773,4.23628 -2.3501,1 z m 15.25,-4.68697 c -2.0625,-0.83982 -3.75,-1.86812 -3.75,-2.28513 0,-1.72219 4.2792,-6.0279 5.9908,-6.0279 5.0974,0 6.5685,3.48578 3.237,7.66998 -1.6494,2.07158 -1.8978,2.10074 -5.4778,0.64305 z m 119.25,-2.31303 c -0.9013,-0.58246 -1.0246,-0.97549 -0.309,-0.98469 0.6551,-0.008 1.4691,0.43469 1.809,0.98469 0.7673,1.24153 0.4212,1.24153 -1.5,0 z m -114,-6.82768 c -1.925,-0.88416 -3.6881,-1.73531 -3.9181,-1.89145 -0.804,-0.54576 2.3546,-5.44409 4.1195,-6.38865 2.3529,-1.25921 7.7986,1.50546 7.7986,3.95915 0,0.99 -1.0125,2.72892 -2.25,3.86426 -2.1413,1.96452 -2.4191,1.98659 -5.75,0.45669 z m 102.174,-1.33855 c -1.2794,-1.55858 -2.882,-2.83377 -3.5615,-2.83377 -0.6794,0 -2.2495,-0.94482 -3.489,-2.09961 -1.2395,-1.15478 -3.0539,-1.89033 -4.032,-1.63455 -1.0608,0.27739 -2.2783,-0.3353 -3.017,-1.51829 -0.9129,-1.46168 -1.5327,-1.68931 -2.3566,-0.86545 -0.6148,0.61485 -3.2779,1.1179 -5.9179,1.1179 -4.575,0 -4.8,-0.12948 -4.8,-2.76265 0,-1.77952 0.8897,-3.43076 2.5,-4.64007 2.4589,-1.84656 3.3868,-5.9312 1.5984,-7.03647 -0.4959,-0.30647 -1.2069,-3.18791 -1.5801,-6.4032 -0.3731,-3.21528 -1.2904,-6.92859 -2.0384,-8.25179 -2.7069,-4.78863 -4.4799,-9.1902 -4.4799,-11.12156 0,-1.1305 -0.8531,-2.19461 -2,-2.49451 -2.7755,-0.72583 -2.5135,-4.09866 0.4225,-5.43636 2.2504,-1.02535 11.5775,-0.41505 11.5775,0.75754 0,0.26862 -0.7437,1.92665 -1.6528,3.68453 -3.0316,5.86264 -1.9924,10.3106 4.3608,18.66346 1.8653,2.45241 6.1816,9.37514 9.5918,15.38384 3.4101,6.0087 7.4597,12.2858 8.9991,13.94912 1.5393,1.66331 2.6643,3.77828 2.5,4.69993 -0.2396,1.34359 -0.7599,1.11407 -2.6249,-1.15804 z m -89.924,-13.57915 c -1.7875,-0.88961 -3.25,-2.17869 -3.25,-2.86462 0,-1.76069 2.8406,-4.39 4.7427,-4.39 0.8799,0 2.4113,-0.73431 3.403,-1.6318 1.6679,-1.50943 1.9925,-1.50771 4.3287,0.0231 3.3299,2.1818 3.1926,3.25896 -0.9248,7.25773 -3.9154,3.80259 -3.8937,3.79839 -8.2996,1.60564 z m -25.7886,-16.74671 c 5.4922,-4.4884 12.3312,-7.53549 25.7161,-11.45765 7.3274,-2.14715 14.2225,-4.20429 15.3225,-4.57142 1.6308,-0.54427 1.7231,-0.46404 0.5,0.43458 -0.825,0.60614 -7.125,2.91035 -14,5.12047 -7.0447,2.26467 -15.8722,5.97088 -20.227,8.49225 -8.3873,4.85618 -12.0404,5.84631 -7.3116,1.98177 z m 184.0531,-7.32674 c -0.9625,-0.96259 -25.5462,-4.25835 -36.2209,-4.8559 -5.2672,-0.29485 -9.6278,-1.02303 -10.1911,-1.70185 -1.1189,-1.34813 9.8533,-0.66692 20.3975,1.26638 3.3,0.60506 8.925,1.31213 12.5,1.57126 9.3085,0.67471 19.4495,1.71705 19.8011,2.03526 0.1656,0.14984 -1.0337,0.73772 -2.665,1.30641 -1.6313,0.56868 -3.261,0.73898 -3.6216,0.37844 z m -138.7645,-9.84345 c 0.6875,-0.27741 1.8125,-0.27741 2.5,0 0.6875,0.27741 0.125,0.50439 -1.25,0.50439 -1.375,0 -1.9375,-0.22698 -1.25,-0.50439 z m 5.5191,-1.03071 c 0.9729,-0.25354 2.3229,-0.23687 3,0.0371 0.677,0.27393 -0.1191,0.48137 -1.7691,0.46099 -1.65,-0.0204 -2.2039,-0.2445 -1.2309,-0.49804 z m 108.4588,-10.74068 c -2.0747,-0.74024 -5.7872,-1.64806 -8.25,-2.01738 -5.5255,-0.8286 -5.7661,-2.1555 -0.5507,-3.03665 3.4255,-0.57872 4.6056,-0.20665 9.2367,2.9121 5.6712,3.81923 5.576,4.28699 -0.436,2.14193 z m 17.0221,-0.25566 c -0.9625,-0.25152 -1.75,-0.87432 -1.75,-1.38399 0,-1.4531 5.2886,-1.02303 7.4412,0.60512 1.8444,1.39509 1.7946,1.46242 -1,1.3522 -1.6177,-0.0638 -3.7287,-0.3218 -4.6912,-0.57333 z m -82.0833,-17.97734 c -1.2314,-1.23138 -0.6814,-6.11369 0.7506,-6.6632 1.7877,-0.68601 2.7666,1.74917 1.9734,4.90933 -0.61,2.43069 -1.4843,2.99358 -2.724,1.75387 z m 42.3333,-1.30236 c -1.375,-0.44612 -5.5572,-1.5909 -9.2937,-2.54395 -8.9696,-2.28776 -8.0595,-2.87672 1.3613,-0.88104 9.3716,1.98524 21.3289,1.49078 25.1942,-1.04182 2.4823,-1.62652 2.7382,-1.64033 2.7382,-0.14779 0,0.90552 -0.7875,1.88028 -1.75,2.16613 -0.9625,0.28585 -3.0239,1.17173 -4.581,1.96861 -3.0485,1.56018 -9.6275,1.79114 -13.669,0.47986 z m 70.75,-14.25146 c 2.7069,-1.30546 2.8206,-2.47046 0.5,-5.12033 -1.6721,-1.90937 -1.6684,-1.96851 0.082,-1.32875 1.0075,0.36827 2.1728,0.66957 2.5895,0.66957 0.8092,0 3.0787,4.4577 3.0787,6.04705 0,0.52412 -1.9125,0.92249 -4.25,0.88527 -3.7916,-0.0604 -4.0073,-0.18472 -2,-1.15281 z m -98.5696,-10.82199 c -2.5244,-2.05781 -2.8265,-7.69203 -0.3857,-7.19262 0.7121,0.1457 2.3378,0.35123 3.6126,0.45674 2.1748,0.17999 2.2418,0.3797 1.0852,3.2351 -0.678,1.67379 -1.4036,3.57165 -1.6126,4.21746 -0.2551,0.78867 -1.1415,0.55337 -2.6995,-0.71668 z m 109.4359,-3.21832 c -5.6936,-5.02123 -6.1065,-5.20152 -12.7733,-5.57823 -7.2689,-0.41073 -9.843,-2.11433 -9.843,-6.51432 0,-1.64871 0.5102,-1.82401 3.75,-1.2885 2.0625,0.34091 6.2439,0.62479 9.292,0.63084 5.1256,0.0102 5.8872,0.33024 10.1383,4.26101 2.528,2.3375 5.0966,5.23292 5.7081,6.43426 1.258,2.47185 1.4996,7.33432 0.3616,7.27981 -0.4125,-0.0198 -3.3977,-2.37095 -6.6337,-5.22487 z M 402.86915,410.593 c -0.3625,-0.58659 -0.4447,-1.281 -0.1825,-1.54313 0.2621,-0.26213 0.743,0.21781 1.0687,1.06653 0.6762,1.76211 0.1,2.07206 -0.8862,0.4766 z m -11.4589,-0.90717 c -0.825,-0.54762 -4.65,-1.03419 -8.5,-1.08127 -3.85,-0.0471 -7.8626,-0.42373 -8.917,-0.837 -1.7159,-0.67253 -1.519,-1.055 1.875,-3.64373 3.4778,-2.65267 4.3793,-2.86836 10.8794,-2.60298 3.8981,0.15914 8.5844,0.9148 10.4139,1.67923 2.8167,1.17689 3.2702,1.81662 2.9591,4.17466 -0.3124,2.3678 -0.8798,2.82387 -3.7889,3.04578 -1.8818,0.14355 -4.0965,-0.18706 -4.9215,-0.73469 z"
       style="fill:#606060;fill-opacity:1"
       sodipodi:nodetypes="cssssssscccscsssssssssssssscscsssssccssssssssssscccssssssscssccsssssssssssssssccssssssscsssscsssssssssscsssssssssssssssssscccsscsssssssscssssssssssssssssscssscsssssssssscccssssssssscsssssssssssssscsssssscsssssssscsscsssssssssssssssssssssssssssssssscscsssssssssssssssssccsssssssssscccssssscssssssscsssssssssscccsscssssssssssssssssscsccsscssssssssssssssssssssssssssssssccsssssscssssssssssssssssssssssssssssssssssssssscssssssssssssssssscssssscsssscsssssscsssssssssssssscsssssssccsssssssssssssssscsssssssssssssssssssscssscsccsssssssssssssssscsscscccsssssssssssssssssssssssscsssssssssssscsssscsccscsssasssssss" />
    <g
       id="g3874"
       transform="translate(-843.83295,547.27125)">
      <path
         sodipodi:nodetypes="cscsssssssssssssscccsssssssssssssssssscssssscssssssssssssssssssssssssssssssssssssssssscssscccsssssssssssssssccscssssssssssscsssssscsccsssscscsssssssssssssssccsscsssssscsssscssssssscscsscssscsssssssscccccssssssssssscssssssssscscsccsssssscssssssssscscccsscsssscscccsssssssssssssssssssssscssscsssssssssscssssscsssssssssssssssssccscssssssssssssscssssssssssssssssssccsssssscssscsssssssssssssssssssssssssssssssssssssssssscssssssscssccccccsccssssssssssscssssscssssssssssssscssccccscccscsccsssssscsssssssssssssss"
         style="fill:#494949;fill-opacity:1"
         d="m 1236.9227,56.751407 c -5.2665,-5.24568 -7.3138,-5.56755 -6.9164,-1.08739 l 0.2568,2.89511 -2.7568,-3.06782 c -1.5162,-1.6873 -4.3554,-4.03156 -6.3092,-5.20945 -5.3419,-3.22041 -10.162,-8.99207 -10.4378,-12.49829 -0.1321,-1.6798 -0.8913,-3.54249 -1.687,-4.13931 -0.7957,-0.59682 -1.7125,-1.79515 -2.0373,-2.66295 -0.4585,-1.22504 -1.8421,-1.51972 -6.188,-1.31799 -6.0462,0.28065 -7.1567,-0.88312 -3.7688,-3.9492 2.3606,-2.136297 6.8074,-2.127607 8.0069,0.0156 0.5142,0.91885 2.4371,2.38135 4.2732,3.25 2.748,1.30008 3.4641,2.31743 4.0496,5.75297 0.8917,5.23244 3.4728,10.3264 5.2324,10.3264 0.7367,0 2.4127,0.83848 3.7243,1.8633 1.4436,1.12788 4.6482,2.04788 8.1194,2.33098 3.407,0.27787 6.4903,1.15166 7.5965,2.15281 1.6219,1.46773 4.8588,9.58413 3.9883,10.00027 -0.1756,0.084 -2.4914,-2.01084 -5.1461,-4.65508 z m -62.3848,-2.90069 c -2.521,-2.70174 -6.589,-12.56594 -5.9109,-14.33307 0.688,-1.79265 -4.5953,-6.45852 -7.3131,-6.45852 -2.1099,0 -2.2721,0.33275 -1.7449,3.5812 0.4858,2.99383 0.3514,3.39054 -0.8196,2.4187 -2.1455,-1.7806 -7.1434,-11.0926 -7.9661,-14.842127 -0.9931,-4.52681 0.24,-12.45855 1.8414,-11.84403 0.6759,0.25938 2.2747,-0.61491 3.5528,-1.94287 2.0326,-2.11186 2.2411,-3.03839 1.6635,-7.39267 -0.6411,-4.83292 0.3177,-6.52796 2.1088,-3.7282 0.4398,0.6875 1.6729,1.73215 2.7402,2.32144 2.418,1.33513 3.9532,5.72393 3.1381,8.97147 -0.4476,1.78348 -1.2968,2.45709 -3.0976,2.45709 -1.8143,0 -2.481,0.53743 -2.481,2 0,1.1 0.5001,2 1.1113,2 0.7284,0 0.8851,1.20576 0.4547,3.5 -0.3883,2.06957 -0.2553,3.5 0.3253,3.5 0.5401,0 1.123,1.4625 1.2953,3.249997 l 0.3134,3.25 8.8393,0.26659 c 8.1394,0.24549 8.881,0.10693 9.3666,-1.75 0.7119,-2.72242 7.2479,-2.83014 9.665,-0.15929 1.5769,1.74245 1.5676,1.99714 -0.1505,4.11885 -1.3243,1.63544 -3.0617,2.33008 -6.2758,2.50911 -2.4445,0.13616 -5.2152,0.57433 -6.157,0.97372 -1.5009,0.63646 -1.5422,0.99259 -0.3339,2.88358 0.7581,1.18659 1.5287,5.30744 1.7124,9.15744 0.3057,6.40911 0.162,7.02461 -1.7027,7.29159 -1.1308,0.1619 -2.9877,-0.72764 -4.175,-2 z m 11.3065,-1.40482 c -0.3633,-0.94678 -0.9339,-4.33725 -1.2681,-7.53438 -0.5717,-5.46938 -0.4663,-5.8667 1.7828,-6.72193 4.2526,-1.61706 6.023,1.12869 5.6817,8.8119 -0.2774,6.24543 -0.4161,6.57211 -2.9135,6.86173 -1.7537,0.20336 -2.8411,-0.26613 -3.2829,-1.41732 z m -61.8697,-5.13239 c -5.0777,-6.99433 -5.8479,-8.73164 -4.4784,-10.10119 2.5318,-2.53177 4.4529,-1.15384 7.1061,5.0968 1.4591,3.4375 2.6516,6.78594 2.65,7.44098 -0.01,2.91337 -2.0928,1.9504 -5.2777,-2.43659 z m 122.8685,1.99562 c 0.3474,-1.5125 2.5281,-7.25 4.8459,-12.75 4.1756,-9.90852 4.2478,-10.00284 7.8873,-10.31037 2.7073,-0.22875 3.6731,0.0766 3.6731,1.16111 0,1.4659 -5.4257,6.64926 -6.9601,6.64926 -0.4436,0 -1.0711,0.7875 -1.3942,1.75 -0.3232,0.9625 -1.1473,2.51592 -1.8313,3.45204 -1.4424,1.97404 -0.5582,3.37956 1.3691,2.17622 1.9193,-1.1984 3.8165,-1.33999 3.8165,-0.28483 0,1.18402 -9.9131,10.90657 -11.1203,10.90657 -0.5048,0 -0.6335,-1.2375 -0.286,-2.75 z m 37.4063,-6.68261 c 0,-4.62011 0.3104,-5.53113 2.0754,-6.09131 2.7841,-0.88365 3.624,0.17439 2.0892,2.63195 -0.6928,1.10938 -0.9761,2.91051 -0.6295,4.00251 0.624,1.96595 -0.965,4.88946 -2.6575,4.88946 -0.4827,0 -0.8776,-2.44468 -0.8776,-5.43261 z m 45.1902,-2.74515 c -2.5904,-0.57917 -4.1412,-1.43407 -3.8872,-2.14291 0.2324,-0.64863 -0.2022,-2.41683 -0.9659,-3.92933 -1.4372,-2.84644 -2.6831,-3.81534 -1.7375,-1.35115 1.0372,2.70312 -1.7567,2.76427 -5.5697,0.12189 -3.3404,-2.3149 -4.4627,-2.57839 -8.4412,-1.98176 -4.8403,0.72584 -5.9421,-0.32847 -3.2042,-3.06629 1.5251,-1.52511 8.6155,-0.92468 8.6155,0.72958 0,0.51732 0.6617,0.27891 1.4704,-0.5298 0.8722,-0.87224 3.1098,-1.40979 5.5004,-1.32143 2.6371,0.0975 4.0299,-0.28312 4.0296,-1.101037 -8e-4,-2.49107 1.7315,-1.16596 3.2682,2.499997 0.8647,2.0625 2.5504,5.20974 3.746,6.99386 l 2.174,3.24387 -3.3443,-0.54679 -3.3443,-0.54679 3.25,1.50465 c 1.7875,0.82756 3.25,1.75138 3.25,2.05293 0,0.30155 -0.1125,0.50008 -0.25,0.44118 -0.1375,-0.0589 -2.1894,-0.5407 -4.5598,-1.07067 z m -66.9581,-4.82224 c 1.4498,-2.32157 2.7679,-2.61062 2.7679,-0.60699 0,0.76616 -0.7118,1.66616 -1.5818,2 -2.4075,0.92386 -2.5376,0.77108 -1.1861,-1.39301 z m -150.1766,-2.58958 c -2.5059,-2.85407 -2.9118,-3.87858 -1.9812,-5 1.249,-1.50485 4.7738,-1.85873 6.4257,-0.64511 0.55,0.40408 1.5649,1.74484 2.2552,2.97947 1.0775,1.92688 0.9713,2.52876 -0.75,4.25 -1.1028,1.10287 -2.1836,2.00522 -2.4016,2.00522 -0.218,0 -1.8147,-1.61531 -3.5481,-3.58958 z m 4.4034,-8.476947 c -0.3625,-0.58659 -0.4447,-1.281 -0.1826,-1.54313 0.2622,-0.26213 0.7431,0.21781 1.0688,1.06653 0.6762,1.76211 0.1,2.072057 -0.8862,0.4766 z m 65.7472,-0.6981 c -1.7704,-0.59014 -4.2061,-5.65796 -4.2061,-8.75145 0,-4.25454 1.5838,-6.28614 4.4703,-5.73434 1.3977,0.26717 3.1011,0.0265 3.7855,-0.53483 1.1643,-0.95508 4.6746,-1.57804 7.4685,-1.32544 1.4881,0.13454 4.2757,5.289 4.2757,7.90604 0,1.04207 -0.8428,2.65741 -1.8729,3.58964 -1.7701,1.60195 -1.9022,1.58301 -2.4064,-0.34501 -0.8054,-3.07972 -2.7207,-2.44543 -2.7207,0.901 0,1.61754 -0.532,3.26976 -1.1822,3.6716 -1.3863,0.85681 -5.8211,1.21966 -7.6117,0.62279 z m 88.9742,-1.74298 c -1.1991,-1.37918 -2.1803,-2.95418 -2.1803,-3.5 0,-0.54581 -0.9,-1.89239 -2,-2.99239 -2.9915,-2.99152 -2.5701,-7.83075 1.1187,-12.84676 3.4903,-4.74614 5.5332,-4.96561 5.0797,-0.54573 -0.1659,1.61662 0.1098,4.05144 0.6126,5.41072 0.6483,1.75252 0.5004,3.10314 -0.5087,4.64314 -1.2258,1.87076 -1.227,2.28723 -0.01,3.00518 2.5491,1.50211 3.8869,5.12745 2.7063,7.33345 -1.3947,2.60603 -2.1847,2.52282 -4.8196,-0.50761 z m -15.4709,-1.74239 c -0.3602,-2.26106 -0.032,-3.63036 1.0776,-4.5 2.3343,-1.82905 4.2505,-1.56201 3.5879,0.5 -2.5931,8.06941 -3.8463,9.14384 -4.6655,4 z m 66.0115,-9.95416 c -1.557,-2.4012 -2.4878,-4.95476 -2.1706,-5.95442 0.3056,-0.96264 -0.089,-2.78327 -0.8755,-4.04584 -1.4275,-2.28975 -1.9789,-4.47684 -3.7072,-14.70251 -0.5026,-2.97381 -1.7705,-6.34881 -2.8175,-7.5 -1.0471,-1.15119 -2.437,-3.75907 -3.0887,-5.79529 -0.6682,-2.08767 -2.0302,-3.9705 -3.1232,-4.31739 -2.6703,-0.84751 -2.4937,-1.66898 1.9386,-9.01772 2.1322,-3.53528 4.8845,-8.91064 6.1161,-11.94523 1.2317,-3.03459 2.5857,-5.51744 3.0089,-5.51744 0.4233,0 2.0585,0.67223 3.6339,1.49384 5.1289,2.67493 11.1963,1.53925 14.171,-2.65254 1.9266,-2.71481 4.5061,-2.42538 3.6424,0.4087 -0.9849,3.23196 -3.3284,5.60478 -7.3963,7.48875 -8.6138,3.98931 -12.1716,8.24226 -14.6038,17.45701 -1.0003,3.79018 -0.9811,6.18301 0.1,12.40781 0.7365,4.24164 1.7981,8.87855 2.359,10.30425 2.131,5.41649 6.7881,26.09218 5.8772,26.09218 -0.186,0 -1.5649,-1.89187 -3.0643,-4.20416 z M 1184.0997,3.05913 c -0.5752,-1.65 -1.5,-3 -2.055,-3 -0.555,0 -0.7549,-0.66269 -0.4441,-1.47263 0.3122,-0.81352 -0.2669,-2.05539 -1.2937,-2.77464 -2.7214,-1.90611 -5.9188,-7.77443 -6.9921,-12.83266 -0.5159,-2.43104 -1.4305,-6.38433 -2.0325,-8.78509 -1.2942,-5.16105 -0.5947,-8.13498 1.9133,-8.13498 2.1048,0 4.0511,4.30702 3.6151,8 -0.1624,1.375 0.3017,3.19029 1.0313,4.03399 2.2194,2.56652 6.4073,12.851 6.4112,15.74452 0,1.49682 0.9021,4.19487 2,5.99566 1.098,1.80079 1.9963,3.93829 1.9963,4.75 0,2.67075 -3.0821,1.53874 -4.1498,-1.52417 z m 63.6498,-3.74138 c -2.3518,-0.40945 -7.5533,-4.20383 -5.8074,-4.23638 0.6559,-0.0122 1.0329,-0.8513 0.8378,-1.8646 -0.328,-1.70323 0.4335,-1.82964 10.0835,-1.67388 12.4525,0.20099 14.2784,1.23558 8.6981,4.92848 -3.7009,2.44911 -9.3761,3.61866 -13.812,2.84638 z m -61.951,-12.50862 c -1.1815,-5.43517 -1.0062,-7.32121 0.8363,-9 1.0564,-0.9625 2.2468,-1.75 2.6453,-1.75 1.4695,0 2.7079,2.59084 2.7723,5.79964 0.053,2.62881 -0.441,3.49248 -2.4285,4.24813 -1.3721,0.52167 -2.2161,1.39933 -1.8756,1.95036 0.3406,0.55103 0.1513,1.00187 -0.4207,1.00187 -0.572,0 -1.2601,-1.0125 -1.5291,-2.25 z m -101.8823,0.58333 c -1.0518,-1.05177 -0.7937,-2.0635 0.9786,-3.83579 1.329,-1.32898 1.8067,-1.39078 2.4847,-0.32143 1.4709,2.32 0.9709,4.82389 -0.9633,4.82389 -1.0084,0 -2.1334,-0.3 -2.5,-0.66667 z m 7.2435,-1.16557 c 1.0313,-1.92704 4.0898,-4.81015 4.0898,-3.8553 0,2.0918 -2.2193,5.68754 -3.5104,5.68754 -1.2025,0 -1.3352,-0.41989 -0.5794,-1.83224 z m 66.3333,-3.15201 c -1.6804,-5.38399 -1.6268,-6.83759 0.1836,-4.98004 1.653,1.69621 3.216,8.96429 1.9277,8.96429 -0.4773,0 -1.4274,-1.79291 -2.1113,-3.98425 z m -47.431,-1.69886 c 0.7219,-0.28887 1.5844,-0.25335 1.9167,0.0789 0.3323,0.33229 -0.2584,0.56864 -1.3125,0.52522 -1.165,-0.048 -1.4019,-0.28494 -0.6042,-0.60416 z m 180.1875,-0.69886 c 0,-0.825 0.45,-1.77811 1,-2.11803 0.55,-0.33992 1,0.057 1,0.88197 0,0.825 -0.45,1.77811 -1,2.11803 -0.55,0.33992 -1,-0.057 -1,-0.88197 z m -178.5,-1.61803 c -0.3399,-0.55 -0.1415,-1 0.441,-1 0.5824,0 1.059,0.45 1.059,1 0,0.55 -0.1984,1 -0.441,1 -0.2425,0 -0.7191,-0.45 -1.059,-1 z m -19.4953,-1.18234 -3.4953,-1.00197 2.2453,-1.81814 c 1.2349,-0.99997 2.2453,-2.23648 2.2453,-2.74778 0,-1.40088 7.8979,-3.7588 8.9423,-2.66974 1.3201,1.37644 -2.8305,9.43834 -4.8033,9.32978 -0.9014,-0.0496 -3.2119,-0.54107 -5.1343,-1.09215 z m 95.5457,-8.4728 c -0.4325,-1.72319 -0.2102,-2.93707 0.6333,-3.45836 1.9315,-1.19375 3.0162,0.46877 2.2633,3.46886 -0.8487,3.38113 -2.0464,3.37679 -2.8966,-0.0105 z m -67.4285,-3.24837 c -2.0227,-1.28113 -0.4831,-2.99856 2.4113,-2.68996 1.3759,0.14669 2.4938,0.56523 2.4842,0.93009 -0.01,0.36486 -0.017,1.11338 -0.017,1.66338 0,1.22642 -3.0005,1.28577 -4.8781,0.0965 z m -12.3719,-4.17659 c -2.5711,-1.49755 -2.1405,-4.05778 1.2151,-7.225 2.5171,-2.37572 3.501,-2.69809 6.5111,-2.13339 4.2763,0.80224 5.5445,2.43153 3.0176,3.87663 -1.0213,0.58402 -3.11,2.29936 -4.6416,3.81186 -3.0663,3.028 -3.5454,3.15911 -6.1022,1.6699 z m 82.1163,-3.34302 c -1.8367,-1.70313 -3.1317,-4.60015 -4.3582,-9.75 -0.9598,-4.02978 -2.2932,-7.77688 -2.9632,-8.32688 -1.81,-1.48581 -3.5449,-5.0964 -3.5449,-7.37755 0,-1.10498 -0.9098,-2.64631 -2.0218,-3.42519 -1.5838,-1.10928 -1.7463,-1.63676 -0.75,-2.43431 2.0954,-1.67752 5.7614,-2.48237 8.3489,-1.83295 2.3826,0.59799 2.4017,0.68489 0.9278,4.21242 -2.4617,5.89177 -1.9026,9.43219 2.5864,16.37749 5.2704,8.1543 6.3937,11.05559 4.6975,12.13181 -0.9995,0.63409 -1.0082,0.82109 -0.039,0.83297 0.6875,0.008 1.25,0.46531 1.25,1.01531 0,1.62352 -1.3488,1.15917 -4.1337,-1.42312 z m -40.1647,-9.73052 c -1.5257,-3.11025 -1.5239,-3.43482 0.025,-4.60011 2.373,-1.78555 0.5276,-3.2134 -4.5298,-3.50494 -2.3024,-0.13272 -4.1884,-0.53067 -4.1913,-0.88432 -0.01,-0.85603 2.7027,-1.85699 5.0269,-1.85699 1.0277,0 2.2784,-0.73232 2.7793,-1.62738 1.0054,-1.79666 10.6873,-3.76135 12.7465,-2.58658 0.8909,0.50827 -0.072,2.44256 -3.3427,6.71396 -2.5268,3.3 -4.5534,6.225 -4.5037,6.5 0.05,0.275 -0.4628,1.55586 -1.139,2.84636 l -1.2293,2.34635 -1.6415,-3.34635 z m 19.5108,-8.489 c -1.071,-2.04464 -0.4568,-8.35736 0.8132,-8.35736 0.4392,0 1.11,1.84315 1.4906,4.0959 0.7799,4.61639 -0.6919,7.33882 -2.3038,4.26146 z m -13.2124,-9.23604 c 0,-1.15783 5.8803,-3.57435 6.7009,-2.75374 0.3502,0.35023 1.4636,-0.11144 2.4741,-1.02593 2.5955,-2.34895 3.3807,-0.97141 1.1733,2.05853 -1.4686,2.01579 -2.7214,2.54343 -6.0983,2.5684 -2.3375,0.0173 -4.25,-0.36399 -4.25,-0.84726 z m 15.1738,-8.34757 c -0.862,-0.86192 -0.7875,-1.54307 0.2998,-2.74463 1.6264,-1.79708 1.8481,-5.94075 0.9293,-17.36546 -0.6882,-8.55695 0.1964,-10.92152 3.0268,-8.09111 1.66,1.66003 1.7492,8.08906 0.3366,24.25464 -0.3224,3.68857 -2.7577,5.78138 -4.5925,3.94656 z m 153.1822,-6.27375 c 0.5776,-2.13491 0.8779,-8.99747 0.7329,-16.75 -0.075,-3.99747 -0.3951,-4.75 -2.0215,-4.75 -1.0629,0 -2.2183,0.9 -2.5674,2 -1.2553,3.95525 -2.1192,1.88307 -1.6897,-4.05349 0.3696,-5.11059 0.1161,-6.39563 -1.6274,-8.25 l -2.0652,-2.19651 4.9852,0.34948 c 4.7911,0.33588 4.9636,0.25802 4.4323,-2 -0.304,-1.29221 -0.7417,-7.52448 -0.9727,-13.84948 -0.4234,-11.5949 -1.7887,-17.91475 -3.9103,-18.10132 -0.6337,-0.0557 -2.5534,-0.0265 -4.2659,0.0649 -4.4778,0.239 -6.3863,-2.15053 -6.3863,-7.99608 0,-4.33088 -0.5345,-5.55119 -4.6774,-10.67857 -5.4579,-6.75478 -6.1357,-7.29783 -8.146,-6.52644 -0.9798,0.37599 -1.2524,0.16928 -0.7816,-0.59252 0.3977,-0.64347 0.4715,-1.16994 0.164,-1.16994 -1.1957,0 -4.2082,3.73882 -5.4732,6.79288 -0.7306,1.76391 -1.6478,3.20711 -2.0381,3.20711 -0.3904,0 -1.3118,1.125 -2.0477,2.5 -2.6462,4.94454 -6.8425,1.87312 -7.5143,-5.5 -0.1253,-1.375 -0.2858,-3.01436 -0.3567,-3.643 -0.071,-0.62866 -0.7811,-1.39324 -1.5781,-1.69907 -0.9323,-0.35779 -1.2646,-0.0754 -0.9318,0.79186 0.7573,1.9734 -1.7265,3.11714 -3.0208,1.39101 -0.6041,-0.8056 -1.8858,-1.76022 -2.8483,-2.12138 -0.9625,-0.36115 -1.75,-1.28508 -1.75,-2.05317 0,-2.23669 -3.9445,-6.62475 -5.4395,-6.05108 -0.7512,0.28828 -3.6245,-0.44746 -6.3849,-1.63497 -5.0052,-2.15319 -5.0488,-2.15428 -15.8473,-0.3971 -12.2294,1.99003 -15.662,3.19501 -19.5347,6.85745 -1.4885,1.4077 -3.1205,2.55946 -3.6268,2.55946 -0.5063,0 -1.8774,2.22436 -3.0469,4.943 -1.1696,2.71866 -2.5818,5.22443 -3.1383,5.56838 -1.6632,1.02788 -4.0137,7.50903 -5.6173,15.48861 -1.8985,9.44719 -4.2416,16.13839 -6.2155,17.75 -0.8421,0.6875 -2.7865,1.25 -4.3209,1.25 -2.1842,0 -2.9342,0.57549 -3.4551,2.65093 -0.3699,1.47381 -0.1564,3.46597 0.4809,4.48643 1.6062,2.572 1.4946,2.8452 -1.6037,3.92571 -1.5125,0.52746 -3.65,2.30276 -4.75,3.9451 -2.3571,3.51924 -3.064,3.67505 -4.5,0.99183 -1.1012,-2.05763 -4,-2.78233 -4,-1 0,0.55 -0.5062,1 -1.125,1 -0.7039,0 -0.9113,-1.06842 -0.5541,-2.85454 0.314,-1.57 -0.089,-5.04675 -0.8952,-7.72612 -0.8064,-2.67936 -1.1675,-5.55732 -0.8025,-6.39546 0.3651,-0.83813 0.7815,-3.21138 0.9254,-5.27388 0.235,-3.36645 0.016,-3.75 -2.1434,-3.75 -1.3291,-2e-5 -2.4052,-0.59234 -2.4052,-1.32394 0,-1.56885 6.7028,-17.27101 8.6401,-20.24059 0.7408,-1.13548 2.2247,-5.49675 3.2976,-9.69172 2.6187,-10.23914 4.339,-13.32232 10.8305,-19.41116 3.4443,-3.23059 5.3,-5.71244 4.9512,-6.62157 -0.6279,-1.63604 5.0004,-6.34647 7.0444,-5.89571 0.6951,0.15329 2.2578,-0.41745 3.4725,-1.26831 2.5179,-1.76354 4.7637,-2.02143 4.7637,-0.54701 0,0.55 -0.675,1 -1.5,1 -0.825,0 -1.5,0.45 -1.5,1 0,1.68684 2.5891,1.11148 4.5,-1 2.1174,-2.33971 4.7715,-2.5827 6.4267,-0.58835 0.9418,1.13487 0.4776,1.94093 -2.3678,4.11125 -1.9467,1.48479 -3.2682,3.13838 -2.9368,3.67465 0.3533,0.57163 -0.7885,0.89742 -2.7598,0.78743 -5.0122,-0.27968 -5.8872,-0.0989 -5.6123,1.15937 0.3346,1.53161 -6.5589,3.42886 -7.0547,1.9416 -0.617,-1.85108 -2.1953,-1.19394 -2.1953,0.91405 0,1.14476 -0.6667,2 -1.559,2 -0.8575,0 -1.2764,0.45734 -0.9309,1.01631 0.3454,0.55897 1.047,0.75742 1.559,0.44098 0.512,-0.31643 0.9309,0.99968 0.9309,2.92468 0,1.925 -0.4793,3.79623 -1.0651,4.15829 -0.7165,0.44279 -0.5955,1.1987 0.3695,2.30902 0.789,0.90789 1.8681,3.00072 2.398,4.65072 0.9241,2.87796 4.6494,5.04872 4.0737,2.3738 -0.1519,-0.70559 0.3028,-1.30335 1.0104,-1.32835 3.3532,-0.11847 4.5094,-8.87736 1.4657,-11.10299 -1.6354,-1.19582 -1.5973,-1.40854 0.5918,-3.30717 1.2868,-1.11603 2.0759,-2.45588 1.7536,-2.97743 -0.8,-1.29436 2.3818,-2.40533 3.7791,-1.31955 1.7645,1.37105 5.7208,2.12853 4.9966,0.95663 -0.3463,-0.5602 -0.01,-1.41134 0.7486,-1.89143 0.9979,-0.6321 1.0333,-0.87711 0.1281,-0.8882 -0.6875,-0.008 -1.25,-0.38737 -1.25,-0.84212 0,-0.45474 1.35,-0.62867 3,-0.3865 1.65,0.24217 3,0.79109 3,1.21982 0,0.42873 0.6854,1.04253 1.5231,1.364 1.2623,0.48436 1.3325,0.22823 0.4101,-1.49525 -0.6121,-1.14385 -0.8898,-2.93327 -0.617,-3.9765 0.2728,-1.04322 0.088,-2.14877 -0.4101,-2.45678 -2.0519,-1.26817 -0.6328,-2.35543 3.8439,-2.94504 10.2435,-1.34915 10.5752,-1.48014 8.7773,-3.4668 -1.5023,-1.65998 -1.3885,-1.92321 1.6807,-3.88848 1.9351,-1.23913 2.6346,-2.11491 1.697,-2.12481 -1.6081,-0.017 -4.905,-3.00982 -4.905,-4.45258 0,-0.42804 0.7251,-0.50002 1.6112,-0.15995 1.3041,0.50042 1.4911,0.13953 0.981,-1.89302 -0.4706,-1.8749 -0.2364,-2.5113 0.9239,-2.5113 2.1975,0 6.5763,-3.04146 5.9163,-4.10939 -0.3027,-0.48984 0.2679,-0.89061 1.268,-0.89061 1.0002,0 2.3806,-0.9 3.0675,-2 0.687,-1.1 2.2577,-1.99311 3.4906,-1.98469 1.772,0.0121 1.9334,0.21015 0.7705,0.94563 -2.547,1.61077 -0.3185,2.2897 3.442,1.04862 2.9453,-0.97202 4.0098,-0.92539 5.817,0.25484 1.4077,0.91934 2.9392,1.15524 4.212,0.64877 1.1,-0.43772 4.0239,-0.52945 6.4975,-0.20385 3.9111,0.51481 4.336,0.39739 3.2586,-0.90068 -1.9433,-2.34157 -0.5442,-2.69987 4.5468,-1.16435 2.5834,0.77919 8.9563,1.85967 14.162,2.40105 5.7602,0.59904 11.1502,1.80016 13.7705,3.06862 2.3681,1.14636 5.0097,1.8141 5.8703,1.48386 0.876,-0.33615 4.3456,0.95476 7.8829,2.93294 5.1069,2.85591 7.072,4.72553 10.2498,9.7513 5.8938,9.32155 8.9241,15.75079 14.9169,31.64898 6.2845,16.67219 7.6983,24.91468 6.3868,37.2342 -0.4881,4.58411 -0.9245,11.15218 -0.9699,14.5957 -0.1253,9.50492 -1.823,19.86754 -4.7084,28.73905 -2.722,8.36894 -5.3638,12.76902 -5.3638,8.93352 0,-1.22298 -1.0642,-2.45283 -2.75,-3.17798 -1.5125,-0.65061 -3.5375,-1.75946 -4.5,-2.46412 -2.6259,-1.92244 -4.8172,-0.003 -6.8608,6.00906 -1.808,5.31895 -5.6588,11.8594 -4.5332,7.69952 z m 6.3345,-26.13592 c 0.7509,-1.95681 -0.8793,-4.86408 -2.7275,-4.86408 -1.3647,0 -3.1895,4.94014 -2.1929,5.93674 1.1787,1.1787 4.3192,0.49406 4.9204,-1.07266 z m -140.6905,-23.36408 c 1.6364,-1.63636 1.7143,-2 0.4286,-2 -1.5155,0 -4.4286,2.25528 -4.4286,3.42857 0,1.22455 2.0951,0.47629 4,-1.42857 z m -10.2289,-7.81318 c 0.2435,-0.73075 -0.2136,-0.95424 -1.1875,-0.58051 -0.871,0.33422 -1.5836,1.04702 -1.5836,1.58401 0,1.31439 2.2728,0.49134 2.7711,-1.0035 z m 0.7528,-4.26218 c 0.603,-1.8998 -0.01,-3.82985 -0.8997,-2.84131 -1.0594,1.1747 -1.637,4.91667 -0.759,4.91667 0.55,0 1.2964,-0.93391 1.6587,-2.07536 z m 15.4761,-22.89751 c 0,-1.18412 -3.7111,-2.32372 -4.991,-1.53266 -1.8319,1.13214 -1.0489,2.00246 1.993,2.21527 1.6489,0.11536 2.998,-0.19181 2.998,-0.68261 z m 9.5,-32.02712 c -0.3399,-0.55 -1.154,-0.99311 -1.809,-0.98469 -0.7156,0.009 -0.5923,0.40223 0.309,0.98469 1.9211,1.24153 2.2673,1.24153 1.5,0 z m 3.2292,-3.60417 c -0.3323,-0.33229 -1.1948,-0.36781 -1.9167,-0.0789 -0.7977,0.31922 -0.5608,0.55618 0.6042,0.60416 1.0541,0.0434 1.6448,-0.19292 1.3125,-0.52522 z m 55.9929,-17.74856 c -0.4636,-1.41407 -6.7221,-2.15328 -6.7221,-0.79396 0,1.15917 1.1043,1.59401 4.5559,1.79396 1.5143,0.0877 2.3902,-0.31665 2.1662,-1 z m 43.0279,129.69044 c 0.6875,-0.27741 1.8125,-0.27741 2.5,0 0.6875,0.27741 0.125,0.50439 -1.25,0.50439 -1.375,0 -1.9375,-0.22698 -1.25,-0.50439 z m -68,-8 c 0.6875,-0.27741 1.8125,-0.27741 2.5,0 0.6875,0.27741 0.125,0.50439 -1.25,0.50439 -1.375,0 -1.9375,-0.22698 -1.25,-0.50439 z m 29.6102,-8.2866 c -0.702,-3.51026 -2.6521,-5.36206 -7.2859,-6.91875 -3.0155,-1.01304 -3.6902,-0.90236 -5.6346,0.92429 l -2.2089,2.07512 0.4966,-4.40525 c 0.4434,-3.9338 0.1902,-4.65322 -2.3654,-6.72222 -1.8915,-1.53129 -2.1838,-2.04825 -0.862,-1.52453 8.2366,3.26342 12.7416,3.88589 19.6052,2.70891 3.8126,-0.65378 9.5111,-1.1248 12.6634,-1.04672 l 5.7314,0.14198 -6.5,0.68861 c -3.575,0.37873 -7.5383,1.02835 -8.8073,1.44359 -3.1018,1.01496 -4.3666,4.79198 -3.583,10.69927 0.6989,5.2689 -0.2796,6.78492 -1.2495,1.9357 z m 18.9849,-5.59425 c -0.3257,-0.84872 -0.4015,-1.73384 -0.1684,-1.96693 0.7875,-0.78745 6.1898,1.10958 6.5915,2.31458 0.6173,1.85211 -5.7104,1.50962 -6.4231,-0.34765 z m 0.6549,-4.45687 c 0,-0.55 0.45,-1 1,-1 0.55,0 1,0.45 1,1 0,0.55 -0.45,1 -1,1 -0.55,0 -1,-0.45 -1,-1 z m -60.6733,-1.61822 c -1.1667,-0.49453 -0.9878,-3.48111 0.4307,-7.18829 0.5959,-1.5575 1.2074,-1.76709 3.096,-1.06115 l 2.3533,0.87968 -2.3533,1.96072 -2.3534,1.96072 2.3233,0.0333 c 1.6644,0.0238 2.2287,0.52965 1.9898,1.78327 -0.3302,1.73234 -3.2208,2.59209 -5.4864,1.63178 z m -27.3161,-4.86905 c -1.8032,-2.17268 -0.4731,-4.51273 2.565,-4.51273 1.995,0 2.4904,0.38572 2.0314,1.58179 -0.3339,0.86998 -0.607,2.21998 -0.607,3 0,1.86023 -2.4231,1.81829 -3.9894,-0.0691 z m 111.4122,-2.86392 c -5.4747,-4.65983 -7.9951,-5.81772 -12.2408,-5.62348 -5.4777,0.25061 -7.5897,0.0491 -6.8838,-0.65681 0.3473,-0.34732 0.1577,-1.51663 -0.4213,-2.59848 -1.0164,-1.89918 -0.7875,-1.94571 6.6398,-1.34976 6.9161,0.55494 8.1375,0.98192 12.102,4.23048 3.8914,3.1887 6.4608,7.6031 5.1742,8.88966 -0.246,0.24601 -2.2125,-1.05522 -4.3701,-2.89161 z m -79.4228,-13.57452 c -1.375,-0.38764 -3.9706,-0.55144 -5.768,-0.36401 -1.7974,0.18744 -4.1971,-0.15641 -5.3326,-0.76412 -1.9859,-1.06281 -1.9947,-1.15784 -0.232,-2.49373 2.5378,-1.92325 12.6792,-1.84169 16.4972,0.13267 4.4001,2.27539 0.3163,5.03439 -5.1646,3.48919 z m -3.5,-74.03986 c -1.9144,-0.70688 -1.9004,-0.77014 0.3254,-1.47776 2.5545,-0.81213 4.0794,-0.0248 2.6079,1.34647 -0.5133,0.47838 -1.8333,0.53747 -2.9333,0.13129 z m 1.25,-6.6967 c 0.6875,-0.27741 1.8125,-0.27741 2.5,0 0.6875,0.27741 0.125,0.50439 -1.25,0.50439 -1.375,0 -1.9375,-0.22698 -1.25,-0.50439 z"
         id="path3053"
         inkscape:connector-curvature="0" />
      <path
         sodipodi:nodetypes="scsssscsscsssssssssssssssssscscsssssssssssscsscsscssssssssccscssssssssscscccsssssssssssscssscccsssscssssssssssssssssscssccsssscsscssscscsssscsscssssssssssssssssscsssssssssssssssscsssssssssssssssssssssssscsssssscssssssscssssssssccccccccsscsssssssssssssscssssssssssssssssssscssssssssssssssscsscsscssss"
         style="fill:#333333;fill-opacity:1"
         d="m 1234.4078,53.549017 c -3.6052,-3.10732 -3.7735,-3.44904 -1.7046,-3.46245 2.3203,-0.015 7.2046,4.01177 7.2046,5.93967 0,1.72954 -1.2969,1.14542 -5.5,-2.47722 z m -59.0104,-0.90212 c -1.4525,-1.90425 -3.2109,-5.62518 -3.9076,-8.26874 l -1.2668,-4.80647 3.2767,-0.24424 c 4.9383,-0.36808 6.4081,1.75509 6.4081,9.25665 0,3.50326 -0.4207,6.62954 -0.9348,6.94731 -0.5142,0.31776 -2.1232,-0.98027 -3.5756,-2.88451 z m 48.373,-2.30219 c -1.2994,-1.42754 -1.7649,-2.24961 -1.0343,-1.82683 0.7306,0.42277 2.37,1.05783 3.643,1.41125 1.8473,0.51285 2.0561,0.88163 1.0342,1.82683 -1.0024,0.92714 -1.7933,0.62072 -3.6429,-1.41125 z m -99.2774,-4.157 c -1.9719,-2.68618 -3.5852,-5.38618 -3.5852,-6 0,-2.34038 3.0204,-0.97728 4.5991,2.07556 1.7,3.28741 3.5278,8.80842 2.9163,8.80842 -0.1898,0 -1.9584,-2.19779 -3.9302,-4.88398 z m 162.4148,-8.11602 c 0,-0.55 0.4766,-1 1.059,-1 0.5825,0 0.7809,0.45 0.441,1 -0.3399,0.55 -0.8165,1 -1.059,1 -0.2426,0 -0.441,-0.45 -0.441,-1 z m -130.2904,-3.75 c -0.7902,-1.5125 -2.1704,-4.1 -3.067,-5.75 -0.8967,-1.65 -1.6331,-4.264521 -1.6364,-5.810041 -0.01,-2.59167 0.2387,-2.77144 3.1457,-2.31331 3.3185,0.52301 4.8074,2.00617 4.8328,4.81433 0.01,0.930041 0.4653,1.969101 1.0153,2.309021 1.6636,1.02817 1.1243,3.94129 -0.9721,5.25048 -1.1562,0.72208 -1.7325,1.85581 -1.393,2.74054 0.9827,2.56073 -0.4069,1.66504 -1.9253,-1.24102 z m 10.7848,0.74387 c -2.3783,-2.62802 -1.5519,-3.26874 4.0704,-3.15589 5.8352,0.11713 8.4352,0.92543 8.4352,2.62242 0,3.1698 -9.7436,3.58545 -12.5056,0.53347 z m 160.2556,0.92603 c -1.1406,-0.66433 -1.75,-2.24136 -1.75,-4.52861 0,-4.2516 1.2821,-3.71884 4.0346,1.67656 2.0803,4.07772 1.3611,4.9755 -2.2846,2.85205 z m -144.2165,-1.71972 c -0.2934,-0.29343 -0.5335,-1.13351 -0.5335,-1.86685 0,-1.4879 2.0985,-1.37977 3.2347,0.16667 0.455,0.61931 0.7405,0.52413 0.75,-0.25 0.01,-0.6875 0.9528,-1.25 2.0986,-1.25 3.1599,0 1.7327,2.35338 -1.8746,3.09114 -1.7279,0.35341 -3.3818,0.40247 -3.6752,0.10904 z m -1.5583,-13.765281 c -0.5363,-1.4108 -0.9752,-3.8858 -0.9752,-5.5 0,-2.39584 0.4224,-2.9349 2.3,-2.9349 1.265,0 2.8719,-0.5625 3.571,-1.25 1.0194,-1.00257 1.6206,-0.82241 3.0375,0.91015 1.5123,1.84921 1.6133,2.82083 0.7017,6.75 -1,4.30986 -1.2661,4.58985 -4.3623,4.58985 -2.6194,0 -3.4979,-0.52742 -4.2727,-2.5651 z m 91.4837,-0.50143 c -0.3626,-0.58659 -0.4447,-1.281 -0.1826,-1.54313 0.2621,-0.26213 0.7431,0.21781 1.0688,1.06653 0.6762,1.76211 0.1,2.07206 -0.8862,0.4766 z m -4.853,-6.47038 c -0.8832,-0.88327 -1.6059,-2.63812 -1.6059,-3.89966 0,-2.23002 3.4255,-7.56343 4.8578,-7.56343 0.392,0 0.8138,2.41619 0.9374,5.36931 0.2621,6.26362 -1.4822,8.80087 -4.1893,6.09378 z m -105.448,-3.46309 c 0,-1.375 0.227,-1.9375 0.5044,-1.25 0.2774,0.6875 0.2774,1.8125 0,2.5 -0.2774,0.6875 -0.5044,0.125 -0.5044,-1.25 z m 158.921,-3.58333 c 0.048,-1.16495 0.285,-1.4019 0.6042,-0.60417 0.2889,0.72187 0.2534,1.58438 -0.079,1.91667 -0.3323,0.33229 -0.5686,-0.25834 -0.5252,-1.3125 z m -2.2268,-7.91667 c -1.2624,-1.95584 -3.9999,-14.48379 -3.5458,-16.22713 0.3452,-1.32557 0.491,-1.18889 0.5777,0.54175 0.064,1.27304 1.0529,4.49257 2.1981,7.15451 1.8365,4.26911 2.4571,11.14483 0.77,8.53087 z m -140.191,-4.98175 c -2.0283,-2.0283 -4.93,-9.88346 -4.4917,-12.1594 0.6799,-3.53016 3.2132,-1.84454 5.4724,3.64115 3.3961,8.24658 2.9162,12.41515 -0.9807,8.51825 z m 133.5817,-15.93673 c -1.2336,-1.56818 -2.2428,-3.71101 -2.2428,-4.76183 0,-1.05083 -1.1374,-3.04798 -2.5275,-4.4381 l -2.5275,-2.52751 2.5278,-3.00411 c 1.3903,-1.65226 2.826,-4.20693 3.1906,-5.67704 0.3645,-1.47011 1.9076,-5.45662 3.4291,-8.8589 l 2.7664,-6.18596 5.4473,2.14404 5.4472,2.14404 -4.8099,4.32455 c -2.867,2.57765 -5.2935,5.82617 -6.007,8.04192 -0.6585,2.04456 -1.5265,4.16738 -1.9289,4.71738 -1.586,2.16725 -2.0411,6.86846 -0.977,10.0926 0.6155,1.86517 0.9697,4.16723 0.7871,5.11568 -0.2726,1.41538 -0.7341,1.21342 -2.5749,-1.12676 z m -140.0148,-3.58152 c -0.5585,-2.2 -0.629,-4 -0.1569,-4 1.2115,0 2.9289,3.47965 2.9289,5.93426 0,3.48107 -1.6983,2.29606 -2.772,-1.93426 z m 160.772,-29.84501 c 0,-0.46476 0.9,-1.6595 2,-2.65499 2.201,-1.99185 2.5584,-1.41184 0.9648,1.56574 -1.0435,1.94982 -2.9648,2.65569 -2.9648,1.08925 z m -179.9898,-1.64266 c -0.6903,-0.83178 -2.025,-1.51233 -2.966,-1.51233 -2.9101,0 -3.0853,-1.17986 -0.4794,-3.2296 2.6742,-2.10359 4.4536,-1.47304 6.4688,2.29235 1.3208,2.46793 -1.2676,4.56512 -3.0234,2.44958 z m 27.9898,-8.07807 c 0,-1.41116 -0.4965,-3.49339 -1.1033,-4.62718 -0.847,-1.58277 -0.789,-2.26054 0.25,-2.91894 1.6735,-1.06041 2.0276,-1.06417 3.6438,-0.0387 1.0456,0.66333 1.0537,1.70451 0.043,5.48468 -1.36,5.0848 -2.8331,6.17683 -2.8331,2.10014 z m 145.4404,-33.91979 -0.9679,-7.579736 3.0122,-0.78053 c 3.7126,-0.96202 4.314,-3.35544 1.5403,-6.12919 -2.6204,-2.62039 -3.6502,-2.00811 -5.1734,3.07596 -0.6619,2.20935 -2.0243,4.45629 -3.0276,4.9932 -1.6151,0.86439 -1.8258,0.54268 -1.8393,-2.80899 -0.01,-2.08185 -0.4463,-4.46018 -0.9731,-5.28518 -0.7737,-1.21177 -0.2572,-1.59608 2.688,-2 l 3.6458,-0.5 -0.2285,-7.5 c -0.5037,-16.53352 -1.013,-21.81565 -2.4307,-25.20851 -1.8643,-4.46201 -2.8497,-5.06002 -6.2239,-3.77715 -3.6293,1.37987 -5.4499,-0.23591 -5.5062,-4.88678 -0.024,-1.99516 -0.7383,-5.42756 -1.587,-7.62756 -0.8487,-2.2 -1.5286,-4.83253 -1.5107,-5.85007 0.018,-1.01753 -1.0681,-2.95049 -2.413,-4.29545 -1.345,-1.34496 -2.4454,-2.84198 -2.4454,-3.32669 0,-1.08184 -5.7336,-4.02779 -7.8392,-4.02779 -0.8425,0 -2.5401,0.94718 -3.7724,2.10484 l -2.2405,2.10484 -1.3145,-2.10484 c -1.4532,-2.32687 -3.8118,-2.72647 -5.591,-0.94722 -0.8768,0.87682 -1.4991,0.87426 -2.5652,-0.0105 -0.7742,-0.64249 -3.2918,-1.43171 -5.5947,-1.75383 -2.3915,-0.3345 -5.2994,-1.61652 -6.7808,-2.98945 -1.9893,-1.84361 -3.7113,-2.40384 -7.3887,-2.40384 -2.6372,0 -5.0731,-0.45 -5.413,-1 -1.0272,-1.66205 -16.186,-1.21372 -19.6574,0.58138 -1.7441,0.9019 -4.0859,1.32338 -5.4503,0.98094 -1.3205,-0.33142 -2.3923,-0.15538 -2.3923,0.39295 0,0.99781 -5.1206,4.04473 -6.7975,4.04473 -0.4933,0 -1.3852,-1.0125 -1.982,-2.25 -0.9712,-2.01377 -1.0923,-1.81128 -1.1528,1.92857 -0.037,2.29822 -0.6862,4.79707 -1.4421,5.553 -1.6506,1.65056 -7.2757,12.7168 -9.2458,18.18902 -0.7763,2.15633 -2.3278,8.41731 -3.4479,13.91331 -2.2708,11.14315 -3.2925,13.6661 -5.5345,13.6661 -1.0891,0 -1.3442,-0.59227 -0.8822,-2.04799 0.3575,-1.12639 0.1148,-2.69292 -0.5394,-3.48118 -0.6542,-0.78826 -1.0206,-3.20381 -0.8142,-5.3679 0.2063,-2.16408 0.1419,-3.83883 -0.1432,-3.72166 -3.7929,1.55868 -6.0184,3.26507 -6.0184,4.61452 0,1.27321 -0.696,1.55567 -3,1.21752 -1.65,-0.24217 -3,-0.97938 -3,-1.63825 0,-1.72182 3.9531,-5.72209 5.0094,-5.06923 0.4896,0.3026 1.3902,-0.38404 2.0013,-1.52588 0.7348,-1.37296 1.7225,-1.88202 2.9163,-1.50312 1.4865,0.47179 1.72,0.12718 1.3225,-1.95195 -0.2655,-1.38868 -1.0703,-2.52488 -1.7885,-2.52488 -1.3996,0 -4.0621,-6.73222 -3.0592,-7.73518 0.9774,-0.97732 5.8738,2.08487 6.3724,3.98518 0.9138,3.48336 2.1406,1.6247 2.8053,-4.25 0.6125,-5.41356 0.9055,-6 2.9981,-6 3.6631,0 7.2181,-4.01134 7.7636,-8.76017 0.5762,-5.01562 3.6166,-12.23983 5.1512,-12.23983 0.6092,0 1.6459,0.53831 2.3038,1.19625 0.9284,0.92834 1.4991,0.78214 2.5483,-0.65277 0.7437,-1.01697 1.8704,-1.52872 2.5038,-1.13724 0.6334,0.39149 1.1517,0.23524 1.1517,-0.34722 0,-0.58246 0.8889,-1.05902 1.9752,-1.05902 1.6562,0 1.832,-0.37698 1.0881,-2.33347 -1.1559,-3.04018 0.041,-4.94502 2.5166,-4.00635 1.7989,0.68198 1.8142,0.62102 0.2415,-0.96613 -0.9232,-0.93173 -2.1607,-1.69405 -2.75,-1.69405 -0.5893,0 -1.0714,-0.6126 -1.0714,-1.36133 0,-2.0633 4.7236,-0.8034 5.3037,1.4146 0.4925,1.88324 6.5199,5.0491 8.0114,4.20791 0.4484,-0.25286 0.039,-1.31782 -0.9105,-2.36659 -0.9491,-1.04877 -1.3916,-2.24089 -0.9834,-2.64915 0.4083,-0.40826 1.3176,0.0445 2.0208,1.00613 0.7032,0.96164 1.8217,1.74843 2.4856,1.74843 1.2948,0 0.8069,-2.54037 -1.3543,-7.05206 -0.9746,-2.03442 -0.9624,-2.79503 0.06,-3.75 0.7053,-0.65887 1.7372,-1.19794 2.2932,-1.19794 0.5559,0 0.7674,-0.63435 0.4699,-1.40966 -0.3252,-0.84751 0.2854,-1.67195 1.5314,-2.06739 2.7166,-0.86222 2.6155,-2.06382 -0.3936,-4.68024 -3.0645,-2.66457 -2.6403,-3.41022 2.399,-4.21602 2.9158,-0.46625 4.8569,-0.14489 7.2722,1.20393 3.6868,2.05894 5.5844,6.19759 1.9497,4.25236 -1.1129,-0.59564 -2.5031,-1.08298 -3.0893,-1.08298 -1.7976,0 -1.1814,1.8285 0.8316,2.4674 1.2304,0.39053 1.7298,1.24239 1.4209,2.42371 -0.3766,1.44008 0.258,1.94071 3.0302,2.39057 4.3952,0.71325 7.6516,-0.0946 7.6516,-1.89831 0,-1.56721 2.5728,-1.88357 3.473,-0.42704 0.6531,1.05668 3.527,0.28529 3.527,-0.94669 0,-0.42701 -0.8523,-0.99925 -1.8939,-1.27164 -1.1029,-0.28843 -2.1709,-1.75637 -2.5571,-3.51494 -0.7078,-3.22242 -2.6065,-4.18549 -8.299,-4.20941 -1.7875,-0.007 -3.25,-0.46365 -3.25,-1.01365 0,-0.55 0.9481,-1 2.107,-1 1.462,0 1.9308,-0.45915 1.5314,-1.5 -0.722,-1.88153 -0.2664,-1.87612 3.4406,0.0409 1.6389,0.84748 3.4591,1.24463 4.0449,0.88255 1.182,-0.73054 9.9339,-1.54783 16.8761,-1.57598 10.8569,-0.044 19.7222,1.0802 24,3.04344 2.475,1.13585 5.7218,2.07508 7.2152,2.08716 1.5671,0.0127 4.1599,1.29044 6.132,3.02196 1.8792,1.65 4.0495,3 4.8227,3 2.7444,0 13.2297,18.06946 18.4325,31.76492 9.3149,24.51985 9.5481,26.17077 7.5205,53.23508 -1.3632,18.19588 -2.5405,25.47538 -5.0768,31.39241 -1.7796,4.151586 -5.3311,6.573506 -6.6085,4.506596 -0.3104,-0.50228 -1.9182,-1.61331 -3.5729,-2.46895 -3.5417,-1.831496 -5.0011,-1.020296 -7.7284,4.29575 l -1.7281,3.3684 -0.9678,-7.57974 z m -41.1714,-124.170406 c -0.677,-0.27392 -2.027,-0.29059 -3,-0.037 -0.9729,0.25354 -0.419,0.47766 1.231,0.49804 1.65,0.0204 2.4461,-0.18706 1.769,-0.46099 z m -18.0912,109.3702 c -1.7262,-2.07998 -7.9645,-3.13617 -9.7536,-1.65135 -1.1145,0.92491 -1.4272,0.88349 -1.4379,-0.19047 -0.01,-0.75484 -0.2788,-2.36146 -0.6029,-3.57027 -0.5632,-2.1002 -0.4229,-2.15187 3.1577,-1.1632 2.0609,0.56904 5.8948,0.88306 8.5197,0.69782 3.0798,-0.21734 4.495,0.0179 3.9901,0.66321 -0.4303,0.55 -1.1967,2.28684 -1.7032,3.85965 -0.7913,2.45759 -1.0964,2.64805 -2.1699,1.35461 z m -83.1778,-9.77328 c 0,-0.58246 0.45,-0.7809 1,-0.44098 0.55,0.33992 1,0.81648 1,1.05902 0,0.24254 -0.45,0.44098 -1,0.44098 -0.55,0 -1,-0.47656 -1,-1.05902 z m 18.25,0.39674 c -2.008,-0.81023 -1.5108,-4.33772 0.6113,-4.33772 1.4462,0 1.7548,0.55758 1.3834,2.5 -0.2628,1.375 -0.5379,2.46447 -0.6113,2.42105 -0.073,-0.0434 -0.6959,-0.30592 -1.3834,-0.58333 z m -13.6116,-1.83772 c -0.3166,-0.825 -0.1398,-1.5 0.393,-1.5 0.5327,0 0.9686,0.675 0.9686,1.5 0,0.825 -0.1769,1.5 -0.393,1.5 -0.2162,0 -0.652,-0.675 -0.9686,-1.5 z m -8.3884,-0.78837 c -1.2375,-0.55949 -2.25,-1.65005 -2.25,-2.42346 0,-0.77341 0.45,-1.12809 1,-0.78817 0.55,0.33992 1,0.14148 1,-0.44098 0,-1.69618 1.8423,-1.22217 2.895,0.74486 1.4281,2.66834 0.087,4.14284 -2.645,2.90775 z m 47.5,-17.37391 c 0.6875,-0.27741 1.8125,-0.27741 2.5,0 0.6875,0.27741 0.125,0.50439 -1.25,0.50439 -1.375,0 -1.9375,-0.22698 -1.25,-0.50439 z m -44.4509,-15.82321 c -2.0827,-1.0882 -2.1192,-1.30744 -0.6798,-4.08174 0.8365,-1.61247 2.1739,-3.29715 2.9719,-3.74373 0.798,-0.44658 1.1898,-1.2343 0.8708,-1.7505 -0.319,-0.5162 -0.096,-0.93854 0.4949,-0.93854 0.5912,0 0.9699,1.37692 0.8417,3.05982 -0.1805,2.36917 -0.6288,2.95634 -1.9861,2.6014 -1.3098,-0.34251 -1.6973,0.0848 -1.5327,1.69018 0.1211,1.18173 0.6572,2.46163 1.1912,2.84423 1.7478,1.25206 0.082,1.49661 -2.1719,0.31888 z m 1.3393,-16.01451 c 0.3166,-0.825 0.7524,-1.5 0.9686,-1.5 0.2161,0 0.393,0.675 0.393,1.5 0,0.825 -0.4359,1.5 -0.9686,1.5 -0.5328,0 -0.7096,-0.675 -0.393,-1.5 z m 0.5933,-4.25 c 0.2192,-0.4125 0.9757,-2.2125 1.6812,-4 0.8097,-2.05139 1.9727,-3.25 3.1535,-3.25 1.192,0 1.676,0.50758 1.334,1.39885 -0.2952,0.76937 -0.041,1.70524 0.5649,2.07972 0.7028,0.43433 0.2177,1.37621 -1.3395,2.60115 -2.3637,1.85929 -6.2025,2.69214 -5.3941,1.17028 z m 15.311,-20.1809 c -0.3164,-0.512 -0.118,-1.21356 0.441,-1.55902 0.559,-0.34546 1.0163,0.0734 1.0163,0.9309 0,1.75653 -0.6001,2.01516 -1.4573,0.62812 z m 15.4573,-4.48577 c 0,-0.87083 0.7125,-1.58333 1.5833,-1.58333 1.766,0 1.4584,2.15276 -0.3958,2.77083 -0.6531,0.21771 -1.1875,-0.31666 -1.1875,-1.1875 z"
         id="path3051"
         inkscape:connector-curvature="0" />
    </g>
  </g>
</svg>
